<svg width="20" height="15" viewBox="0 0 20 15" fill="none" xmlns="http://www.w3.org/2000/svg">
<path d="M5.325 0.495216L0 14.3327H1.675L3.5375 9.50772H8.5375L10.4375 14.3327H12.1125L6.7875 0.495216C6.72907 0.349038 6.62817 0.223726 6.49783 0.135453C6.36748 0.0471809 6.21367 0 6.05625 0C5.89883 0 5.74502 0.0471809 5.61467 0.135453C5.48433 0.223726 5.38343 0.349038 5.325 0.495216ZM4.1375 7.99522L6.0625 2.99522L7.975 7.99522H4.1375ZM15.825 4.82022C14.9923 4.73345 14.1561 4.94805 13.468 5.42508C12.78 5.90211 12.2858 6.60996 12.075 7.42022L13.5875 7.80772C13.7217 7.34028 14.0216 6.93777 14.4312 6.67548C14.8407 6.4132 15.3318 6.30912 15.8125 6.38272C16.775 6.38272 17.8 6.70772 17.8 7.63272V8.57022C17.4625 8.57022 17.0125 8.68272 16.625 8.73272C15.558 8.80143 14.5059 9.02025 13.5 9.38272C12.9265 9.56768 12.436 9.94794 12.1139 10.4573C11.7919 10.9666 11.6587 11.5728 11.7375 12.1702C11.7734 12.5337 11.891 12.8844 12.0815 13.1961C12.272 13.5078 12.5304 13.7724 12.8375 13.9702C13.4477 14.3381 14.1501 14.5246 14.8625 14.5077C15.4401 14.5059 16.0138 14.4131 16.5625 14.2327C17.0177 14.0999 17.4424 13.879 17.8125 13.5827V14.3452H19.375V7.62022C19.375 5.99522 17.95 4.82022 15.825 4.82022ZM16.1 12.7327C15.7173 12.8824 15.3079 12.9519 14.8972 12.9369C14.4865 12.9218 14.0832 12.8226 13.7125 12.6452C13.597 12.5788 13.4998 12.4845 13.43 12.371C13.3601 12.2575 13.3197 12.1283 13.3125 11.9952C13.1875 10.8827 14.3375 10.5452 16.8125 10.2702L17.7625 10.1452C17.525 12.2452 16.5875 12.5702 16.1 12.7327Z" fill="#4F4F4F"/>
</svg>
