<svg width="40" height="40" viewBox="0 0 40 40" fill="none" xmlns="http://www.w3.org/2000/svg">
<path d="M40 20C40 23.8181 38.9275 27.3874 37.0742 30.4247C33.5607 36.169 27.2287 40 20 40C13.9725 40 8.56714 37.3316 4.90348 33.1145C1.84899 29.6053 0 25.015 0 20C0 8.95324 8.95324 0 20 0C31.0468 0 40 8.95324 40 20Z" fill="#EDDDD6"/>
<path d="M21.9907 14.466C21.9907 14.466 25.2168 12.9388 25.5686 15.4699C25.9804 18.3999 22.4626 18.5629 22.4626 18.5629L21.9907 14.466Z" fill="#F27E64"/>
<path d="M23.7153 17.07C23.681 17.07 23.6467 17.0614 23.6166 17.0443C23.5137 16.9885 23.4708 16.8598 23.5265 16.7525L24.5476 14.8349C24.6033 14.7319 24.732 14.689 24.8393 14.7448C24.9422 14.8006 24.9851 14.9293 24.9294 15.0365L23.9084 16.9542C23.8697 17.0271 23.7968 17.07 23.7196 17.07H23.7153Z" fill="#454545"/>
<path d="M24.0329 16.4778C23.917 16.4778 23.8226 16.3834 23.8184 16.2676C23.8184 16.1475 23.9084 16.0531 24.0286 16.0488L24.9638 16.0273C25.0796 16.0273 25.1783 16.1174 25.1826 16.2376C25.1826 16.3577 25.0925 16.4521 24.9724 16.4563L24.0371 16.4778H24.0329Z" fill="#454545"/>
<path d="M37.0741 30.4248C35.8085 32.4926 34.1783 34.3116 32.2736 35.7873C32.1491 35.8903 32.0247 35.9847 31.896 36.0748C28.5713 38.5458 24.4572 40.0001 19.9998 40.0001C17.3272 40.0001 14.7746 39.4767 12.4451 38.5243C12.3122 38.4686 12.1792 38.4128 12.0462 38.3527C9.28341 37.1558 6.84669 35.354 4.90332 33.1147C5.70555 30.6222 7.20276 28.2541 9.87115 26.7526C16.6837 22.9216 26.8853 22.9216 31.4241 25.0752C34.2126 26.3965 36.053 28.7646 37.0741 30.4248Z" fill="#7772D3"/>
<path d="M23.3117 11.5573C23.3117 11.5573 25.4439 8.12104 25.0106 6.65385C24.5816 5.18667 22.6597 6.62382 22.6597 6.62382C22.6597 6.62382 22.2221 3.46209 19.8712 4.07556C16.7395 4.89066 13.6249 10.4119 13.6249 10.4119C13.6249 10.4119 12.029 10.0129 11.4885 11.4115C10.8622 13.0417 11.4113 14.8649 12.4194 16.4908C13.4276 18.1167 16.1517 16.774 16.1517 16.774L23.3117 11.553V11.5573Z" fill="#454545"/>
<path d="M16.6968 21.5057L16.8126 25.2723C16.8126 25.2723 18.2069 26.0016 19.9143 25.963C22.218 25.9116 22.9602 24.8991 22.9602 24.8991L22.7586 20.0171L16.7011 21.51L16.6968 21.5057Z" fill="#F27E64"/>
<path d="M16.6967 21.4201C16.6967 21.4201 18.1553 24.2472 20.7507 23.7581C22.8442 23.3635 22.7584 20.3948 22.7584 20.3948L16.6924 21.4201H16.6967Z" fill="#454545"/>
<path d="M23.3118 11.5574C23.3118 11.5574 24.4658 18.1039 23.299 20.6607C21.9905 23.5308 18.64 23.1489 17.4388 22.2952C15.8172 21.1455 15.1179 19.2879 15.1179 19.2879C15.1179 19.2879 12.9729 19.8027 12.1836 18.0653C11.3556 16.242 12.6426 14.6933 13.7237 14.5646C14.8005 14.4359 14.9377 14.6247 14.9377 14.6247L14.5431 12.6599C14.5431 12.6599 20.8365 5.09661 23.3161 11.5531L23.3118 11.5574Z" fill="#F27E64"/>
<path d="M14.9333 14.6289C14.9333 14.6289 16.3362 14.6803 17.9192 13.4191C19.7768 11.9433 19.485 9.5023 19.485 9.5023C19.485 9.5023 22.8656 11.4414 23.7064 13.9939C24.5472 16.5465 24.5344 7.88068 20.7935 8.19385C17.0526 8.50702 12.0633 10.948 14.9333 14.6246V14.6289Z" fill="#454545"/>
<path d="M14.6804 17.5203C14.6332 17.5203 14.586 17.5031 14.5474 17.4731L12.8228 16.1046C12.7285 16.0317 12.7156 15.8944 12.7885 15.8043C12.8615 15.7099 12.9987 15.697 13.0888 15.77L14.8134 17.1385C14.9078 17.2114 14.9207 17.3487 14.8477 17.4388C14.8048 17.4903 14.7405 17.5203 14.6804 17.5203Z" fill="#454545"/>
<path d="M13.1491 17.8422C13.0847 17.8422 13.0246 17.8165 12.9817 17.765C12.9088 17.6749 12.9217 17.5376 13.0118 17.4647L13.9684 16.6839C14.0585 16.611 14.1958 16.6238 14.2687 16.7139C14.3417 16.804 14.3288 16.9413 14.2387 17.0142L13.282 17.795C13.2434 17.8293 13.1962 17.8422 13.1448 17.8422H13.1491Z" fill="#454545"/>
<path d="M18.2582 15.6028C18.1509 15.6028 18.0566 15.5213 18.0437 15.4097L17.9407 14.3501C17.9279 14.2343 18.0137 14.127 18.1338 14.1141C18.2496 14.1056 18.3569 14.1871 18.3697 14.3072L18.4727 15.3668C18.4856 15.4827 18.3998 15.5899 18.2796 15.6028C18.2711 15.6028 18.2668 15.6028 18.2582 15.6028Z" fill="#454545"/>
<path d="M22.3764 15.4482C22.2691 15.4482 22.1747 15.3667 22.1619 15.2552L22.0589 14.1956C22.046 14.0797 22.1318 13.9725 22.2519 13.9596C22.3721 13.951 22.475 14.0325 22.4879 14.1527L22.5909 15.2123C22.6037 15.3281 22.5179 15.4354 22.3978 15.4482C22.3892 15.4482 22.3849 15.4482 22.3764 15.4482Z" fill="#454545"/>
<path d="M20.8667 18.0652C20.8667 18.0652 20.8453 18.0652 20.8324 18.0652C20.7166 18.048 20.6351 17.9365 20.6522 17.8206C20.8968 16.2591 20.3434 14.9849 20.3391 14.9721C20.2919 14.8648 20.3391 14.7361 20.4463 14.6889C20.5536 14.6417 20.6823 14.6889 20.7295 14.7962C20.7552 14.8519 21.3429 16.1947 21.077 17.885C21.0598 17.9922 20.9697 18.0652 20.8667 18.0652Z" fill="#454545"/>
<path d="M22.7369 13.2348C22.6897 13.2348 22.6425 13.2176 22.6039 13.1876C22.3121 12.9516 21.7931 12.9259 21.6172 12.9345C21.5013 12.9388 21.3984 12.8487 21.3898 12.7328C21.3855 12.6127 21.4756 12.514 21.5914 12.5055C21.6215 12.5055 22.3937 12.4669 22.8698 12.853C22.9599 12.9259 22.9771 13.0632 22.9042 13.1533C22.8613 13.2047 22.8012 13.2348 22.7369 13.2348Z" fill="#454545"/>
<path d="M17.9062 13.3933C17.8419 13.3933 17.7775 13.3633 17.7346 13.3118C17.6617 13.2174 17.6789 13.0844 17.7732 13.0115C18.258 12.634 19.0259 12.6855 19.0602 12.6855C19.1761 12.694 19.2662 12.797 19.2576 12.9128C19.249 13.033 19.1546 13.1188 19.0302 13.1102C19.0216 13.1102 18.391 13.0716 18.0392 13.3461C18.0006 13.3762 17.9534 13.389 17.9062 13.389V13.3933Z" fill="#454545"/>
<path d="M14.4316 14.6591C14.4316 14.6591 15.1867 16.5767 15.4355 16.4866C15.6843 16.3965 15.1395 13.3506 14.4059 13.2562C13.668 13.1619 14.4316 14.6591 14.4316 14.6591Z" fill="#454545"/>
<path d="M19.9273 26.169C17.9367 26.169 16.0834 25.2982 16.0491 25.2853C15.9418 25.2338 15.8989 25.1051 15.9504 24.9979C16.0019 24.8906 16.1306 24.8434 16.2379 24.8949C16.2893 24.9206 21.5875 27.4045 23.5823 23.7366C23.6381 23.6336 23.7711 23.595 23.8741 23.6508C23.977 23.7066 24.0156 23.8396 23.9599 23.9425C23.0203 25.6714 21.433 26.169 19.9315 26.169H19.9273Z" fill="#FFBF69"/>
<path d="M20.086 19.7169C19.4554 19.7169 19.1122 19.3308 19.0092 19.0777C18.9663 18.9661 19.0178 18.8417 19.1293 18.7988C19.2366 18.7559 19.361 18.8074 19.4082 18.9146C19.4339 18.9704 19.6699 19.4552 20.4764 19.2321C20.5879 19.2021 20.708 19.2664 20.7424 19.3822C20.7724 19.4981 20.708 19.6139 20.5922 19.6482C20.4077 19.6997 20.2361 19.7212 20.086 19.7212V19.7169Z" fill="#454545"/>
<path d="M12.9301 35.9803L12.4454 38.5243C12.3124 38.4685 12.1794 38.4128 12.0464 38.3527L12.514 35.8988C12.5354 35.783 12.647 35.7058 12.7671 35.7272C12.8829 35.753 12.9559 35.8602 12.9301 35.9803Z" fill="#FFBF69"/>
</svg>
