<svg width="20" height="20" viewBox="0 0 20 20" fill="none" xmlns="http://www.w3.org/2000/svg">
<path d="M4.99958 9.99984H3.43708C2.93708 9.99984 2.53125 10.4057 2.53125 10.9057V16.8023C2.53125 17.3023 2.93708 17.7082 3.43708 17.7082H4.99792C5.49792 17.7082 5.90375 17.3023 5.90375 16.8023V10.9057C5.90375 10.4057 5.49792 9.99984 4.99792 9.99984M10.7804 6.14567H9.21958C8.71958 6.14567 8.31375 6.5515 8.31375 7.0515V16.8023C8.31375 17.3023 8.71875 17.7082 9.21875 17.7082H10.7804C11.2804 17.7082 11.6863 17.3023 11.6863 16.8023V7.0515C11.6863 6.5515 11.2804 6.14567 10.7804 6.14567ZM16.5613 2.2915H15.0004C14.5004 2.2915 14.0946 2.69734 14.0946 3.19734V16.8023C14.0946 17.3023 14.5004 17.7082 15.0004 17.7082H16.5613C17.0613 17.7082 17.4671 17.3023 17.4671 16.8023V3.19734C17.4671 2.69734 17.0613 2.2915 16.5613 2.2915Z" stroke="#454545" stroke-width="1.3" stroke-linecap="round" stroke-linejoin="round"/>
</svg>
