<svg width="20" height="20" viewBox="0 0 20 20" fill="none" xmlns="http://www.w3.org/2000/svg">
<g clip-path="url(#clip0_351_2749)">
<path d="M9.99994 0C4.4771 0 0 4.4771 0 9.99994C0 15.5228 4.4771 19.9999 9.99994 19.9999C15.5228 19.9999 19.9999 15.5228 19.9999 9.99994C19.9999 4.4771 15.5228 0 9.99994 0Z" fill="#F0A931"/>
<path d="M9.99994 0C4.4771 0 0 4.4771 0 9.99994C0 15.5228 4.4771 19.9999 9.99994 19.9999C15.5228 19.9999 19.9999 15.5228 19.9999 9.99994C19.9999 4.4771 15.5228 0 9.99994 0ZM9.99848 1.86332C9.99848 1.86332 9.99949 1.86332 9.99994 1.86332C9.99994 1.86332 9.99893 1.86332 9.99848 1.86332Z" fill="#F7CB40"/>
<path d="M18.1338 9.7901C18.1197 9.23181 18.0493 8.68746 17.9282 8.16257C17.913 8.0969 17.8971 8.03169 17.8804 7.96669C17.8104 7.69503 17.7265 7.42909 17.6301 7.16912C17.5189 6.86934 17.3907 6.57778 17.2463 6.29588C17.2164 6.2374 17.1857 6.17938 17.1544 6.1217C16.8184 5.50314 16.4042 4.93327 15.9255 4.42479C15.5073 3.98041 15.0399 3.58303 14.5317 3.24154C14.3206 3.09974 14.1027 2.9674 13.8782 2.84551C13.8206 2.81425 13.7625 2.78355 13.7041 2.75364C12.593 2.18456 11.3339 1.86353 9.9999 1.86353C9.99945 1.86353 9.99889 1.86353 9.99844 1.86353C9.9547 1.86353 9.91118 1.86454 9.86767 1.86521C9.81246 1.86611 9.75736 1.86757 9.70249 1.86948C9.69371 1.86982 9.68494 1.87016 9.67617 1.8705C9.62771 1.87241 9.57936 1.87454 9.53112 1.87724C9.50818 1.87859 9.48535 1.88005 9.46253 1.88163C9.42621 1.88399 9.38978 1.88624 9.35346 1.88905C9.2915 1.89389 9.22954 1.89928 9.16792 1.90547C8.89434 1.93324 8.62481 1.97462 8.36001 2.02882C8.0952 2.08302 7.835 2.15003 7.5802 2.22931C7.4528 2.26889 7.32675 2.31162 7.20216 2.35727C6.89058 2.4714 6.58799 2.60397 6.29563 2.75364C6.23716 2.78355 6.17914 2.81425 6.12145 2.84551C6.0062 2.90814 5.89252 2.97347 5.78075 3.04139C5.63592 3.12943 5.49435 3.22231 5.35559 3.3189C5.28014 3.37152 5.20525 3.42482 5.1316 3.47992C4.19179 4.18281 3.40895 5.08406 2.84526 6.1217C2.814 6.17938 2.7833 6.2374 2.75339 6.29588C2.65129 6.49524 2.55774 6.69955 2.47206 6.90803C2.44158 6.98213 2.41224 7.05668 2.3839 7.13179C2.28146 7.40357 2.19274 7.68198 2.11943 7.96658C2.10268 8.03157 2.08682 8.09691 2.07164 8.16246C1.95043 8.68735 1.88004 9.2317 1.86598 9.78999C1.86418 9.85982 1.86328 9.92976 1.86328 10C1.86328 10.0591 1.86407 10.118 1.86553 10.1767C1.86688 10.2326 1.86868 10.2882 1.87104 10.3439C1.87126 10.3397 1.87149 10.3357 1.87171 10.3316C1.9023 11.0943 2.03667 11.8303 2.26325 12.525C2.3297 12.729 2.40392 12.9293 2.48578 13.1258C3.04283 14.4633 3.94643 15.6201 5.08471 16.4843C5.22538 16.591 5.36954 16.6932 5.51706 16.7909C5.87756 17.0293 6.25774 17.2402 6.65534 17.4198C6.8203 17.4943 6.98829 17.5631 7.15887 17.6266C7.98658 17.935 8.87781 18.1128 9.80773 18.1344C9.8716 18.1359 9.93558 18.1369 9.9999 18.1369C10.1566 18.1369 10.3123 18.1319 10.4669 18.1233C14.6299 17.8876 17.9553 14.5227 18.1288 10.3433C18.1288 10.3436 18.1288 10.3438 18.1288 10.344C18.1311 10.2883 18.1329 10.2327 18.1343 10.1768C18.1357 10.1181 18.1365 10.0593 18.1365 10.0001C18.1365 9.92998 18.1356 9.85993 18.1338 9.7901Z" fill="#DB8D24"/>
<path d="M15.4972 11.0718L17.6839 8.00642C17.3191 6.96057 16.7468 6.01221 16.0163 5.21025L14.957 6.6952C14.9376 6.64381 14.9149 6.59276 14.8873 6.54227C14.8242 6.42668 14.7494 6.32694 14.6665 6.24137C14.2816 5.84444 13.7168 5.76314 13.2764 5.91382L14.6396 4.00304C13.331 3.09292 11.7426 2.55734 10.0293 2.55127L8.176 5.14919C8.0486 5.03124 7.9122 4.93263 7.7703 4.85684C7.39046 4.6541 6.97171 4.61733 6.58322 4.82951C6.03235 5.1303 5.83332 5.68994 5.89483 6.17919C5.87369 6.34819 5.88392 6.51765 5.9226 6.6753C5.33553 6.547 4.57462 6.85656 4.35951 7.63198C4.31318 7.79896 4.30576 7.96166 4.33005 8.1174C4.24661 8.6649 4.56753 9.15707 5.08219 9.48608L2.48584 13.1256C3.04289 14.4631 3.9465 15.6199 5.08478 16.4841C5.22545 16.5908 5.3696 16.693 5.51713 16.7907L6.98026 14.7397C7.09394 15.1507 7.40271 15.5311 7.91501 15.6731C8.13867 15.7352 8.35478 15.7282 8.55651 15.6673L7.15893 17.6264C7.98664 17.9348 8.87788 18.1126 9.8078 18.1342C9.87167 18.1357 9.93565 18.1367 9.99997 18.1367C10.1567 18.1367 10.3123 18.1317 10.4669 18.1231L12.5147 15.2527C12.8128 15.3405 13.1233 15.3226 13.4167 15.1624C13.9676 14.8616 14.1666 14.302 14.1051 13.8127C14.1262 13.6438 14.116 13.4743 14.0773 13.3166C14.6644 13.4449 15.4253 13.1354 15.6404 12.3599C15.6867 12.193 15.6942 12.0303 15.6699 11.8745C15.7137 11.5865 15.6465 11.3136 15.4971 11.0719L15.4972 11.0718Z" fill="#EA9630"/>
<path d="M15.6699 11.8743C15.7138 11.5863 15.6465 11.3134 15.4971 11.0717C15.4102 10.9309 15.2953 10.8009 15.1592 10.6843C14.7741 10.3539 14.2173 10.1324 13.6258 10.0913C13.3277 10.0706 12.9722 10.0285 12.6144 9.97894C12.4272 9.95297 12.2395 9.92486 12.0589 9.89652C11.9345 9.87707 11.8137 9.8575 11.6989 9.83839C12.1408 9.65679 12.6537 9.45495 13.0949 9.30517C13.1879 9.27358 13.2777 9.24434 13.3629 9.21814C14.368 8.90858 15.1391 8.07188 15.0166 7.26745C15.0448 7.07685 15.028 6.88356 14.9569 6.6951C14.9376 6.64372 14.9149 6.59267 14.8872 6.54218C14.8241 6.42659 14.7493 6.32685 14.6665 6.24128C14.2816 5.84435 13.7168 5.76305 13.2763 5.91372C13.203 5.9388 13.1333 5.9704 13.0684 6.00784C13.0711 5.9343 13.068 5.85964 13.0582 5.78498C13.0761 5.65173 13.0729 5.51207 13.0476 5.37343C12.9646 4.91769 12.6473 4.47454 12.0848 4.31847C11.0917 4.04309 10.2449 5.11582 10.1602 6.33292C10.1103 7.05065 9.9376 8.10123 9.82932 8.71551C9.59352 8.16779 9.14228 7.09035 8.91537 6.35361C8.76806 5.87549 8.50146 5.45045 8.17593 5.14899C8.04853 5.03103 7.91213 4.93242 7.77023 4.85663C7.39039 4.65389 6.97165 4.61712 6.58315 4.82931C6.03228 5.1301 5.83325 5.68974 5.89476 6.17898C5.87362 6.34799 5.88385 6.51744 5.92254 6.67509C5.33546 6.54679 4.57455 6.85635 4.35944 7.63177C4.31311 7.79875 4.30569 7.96146 4.32998 8.11719C4.24654 8.66469 4.56746 9.15686 5.08212 9.48587C5.4424 9.71627 5.8969 9.86695 6.374 9.90023C6.93533 9.93925 7.70018 10.0534 8.30086 10.1531C7.76584 10.3729 7.12648 10.6226 6.6369 10.7734C5.63175 11.0829 4.86072 11.9196 4.98317 12.7241C4.9473 12.9666 4.98385 13.2135 5.1126 13.4493C5.51762 14.191 6.39188 14.2952 6.9315 13.9836C6.9288 14.0571 6.93195 14.1318 6.94174 14.2065C6.91868 14.3788 6.93117 14.562 6.9803 14.7395C7.09399 15.1505 7.40276 15.5309 7.91506 15.6729C8.13871 15.735 8.35483 15.728 8.55656 15.6671C9.18872 15.476 9.67875 14.7492 9.81099 13.9087C9.82392 13.8261 9.83382 13.7427 9.83966 13.6584C9.88959 12.9407 10.0623 11.8901 10.1706 11.2758C10.3104 11.6005 10.5257 12.1113 10.7253 12.6269C10.8623 12.9811 10.9921 13.3377 11.0845 13.6377C11.3272 14.4255 11.8937 15.0693 12.5146 15.2523C12.8127 15.3401 13.1233 15.3222 13.4166 15.162C13.9675 14.8612 14.1665 14.3015 14.105 13.8123C14.1262 13.6434 14.1159 13.4738 14.0773 13.3162C14.6643 13.4445 15.4252 13.1349 15.6404 12.3595C15.6867 12.1925 15.6941 12.0298 15.6698 11.8741L15.6699 11.8743Z" fill="#EFB032"/>
<path d="M13.4165 14.8186C13.0279 15.0307 12.6092 14.994 12.2294 14.7912L15.159 10.6845C14.7739 10.3542 14.2171 10.1326 13.6256 10.0915C13.3275 10.0708 12.972 10.0287 12.6142 9.97915C12.4271 9.95318 12.2393 9.92506 12.0587 9.89673L10.5938 11.9503C10.4356 11.5551 10.2797 11.1866 10.1703 10.9323C10.0786 11.4526 9.94104 12.2852 9.87054 12.964L8.15441 15.3696C8.0757 15.3645 7.99575 15.3519 7.91468 15.3294C7.32434 15.1657 7.0041 14.6856 6.94135 14.2067C6.9183 14.379 6.93078 14.5622 6.97992 14.7397C7.0936 15.1507 7.40238 15.5311 7.91468 15.6731C8.13833 15.7352 8.35445 15.7282 8.55617 15.6673C9.18834 15.4762 9.67837 14.7494 9.81061 13.9089C9.82354 13.8263 9.83343 13.7429 9.83928 13.6586C9.88921 12.9409 10.0619 11.8903 10.1702 11.276C10.31 11.6007 10.5253 12.1116 10.7249 12.6271C10.862 12.9813 10.9917 13.3379 11.0842 13.6379C11.3268 14.4257 11.8933 15.0695 12.5142 15.2525C12.8123 15.3403 13.1229 15.3224 13.4163 15.1622C13.9671 14.8614 14.1662 14.3018 14.1047 13.8125C14.0561 14.201 13.8407 14.5866 13.4163 14.8183L13.4165 14.8186Z" fill="#EDCA35"/>
<path d="M11.1182 9.73826C11.2767 9.76671 11.4768 9.80168 11.6992 9.83856C12.1411 9.65697 12.6539 9.45513 13.0952 9.30535C13.1882 9.27375 13.2779 9.24452 13.3631 9.21832C14.3683 8.90876 15.1393 8.07206 15.0169 7.26763C15.0451 7.07703 15.0282 6.88374 14.9571 6.69528C14.9378 6.64389 14.9151 6.59285 14.8874 6.54236C14.8243 6.42676 14.7496 6.32703 14.6667 6.24146L12.5992 9.13961C12.0626 9.34077 11.4997 9.57522 11.1182 9.73815V9.73826Z" fill="#EDCA35"/>
<path d="M6.93337 13.9444L13.0477 5.37343C12.9647 4.91769 12.6474 4.47454 12.0849 4.31847C11.0918 4.04309 10.245 5.11582 10.1603 6.33292C10.1104 7.05065 9.93767 8.10123 9.82939 8.71551C9.59359 8.16779 9.14235 7.09035 8.91544 6.35361C8.76813 5.87549 8.50153 5.45045 8.176 5.14899C8.0486 5.03103 7.9122 4.93242 7.7703 4.85663L4.84066 8.96334C4.56652 8.72811 4.37986 8.43766 4.33005 8.11719C4.24661 8.66469 4.56753 9.15686 5.08219 9.48587C5.44246 9.71627 5.89697 9.86695 6.37407 9.90023C6.93539 9.93925 7.70024 10.0534 8.30092 10.1531C7.76591 10.3729 7.12655 10.6226 6.63697 10.7734C5.63182 11.0829 4.86079 11.9196 4.98324 12.7241C4.94737 12.9666 4.98391 13.2135 5.11266 13.4493C5.51769 14.191 6.39195 14.2952 6.93157 13.9836C6.93202 13.9705 6.93247 13.9574 6.93337 13.9443V13.9444Z" fill="#EDCA35"/>
<path d="M12.6146 9.97895C12.4275 9.95297 12.2397 9.92486 12.0592 9.89652C11.9348 9.87707 11.814 9.85751 11.6992 9.83839C12.1411 9.65679 12.654 9.45495 13.0952 9.30518L12.6146 9.97895Z" fill="#DB8D24"/>
<path d="M9.81104 13.9088C9.82397 13.8262 9.83386 13.7428 9.83971 13.6585C9.88963 12.9408 10.0623 11.8902 10.1706 11.2759C10.3104 11.6006 10.5257 12.1115 10.7253 12.627L9.81104 13.9087V13.9088Z" fill="#DB8D24"/>
<path d="M14.5317 3.24154C14.3206 3.09974 14.1027 2.9674 13.8782 2.84551C13.8206 2.81425 13.7625 2.78355 13.7041 2.75364C12.593 2.18456 11.3339 1.86353 9.9999 1.86353C9.99945 1.86353 9.99889 1.86353 9.99844 1.86353C9.9547 1.86353 9.91118 1.86454 9.86767 1.86521C9.81246 1.86611 9.75736 1.86757 9.70248 1.86948C9.69371 1.86982 9.68494 1.87016 9.67617 1.8705C9.62771 1.87241 9.57936 1.87454 9.53112 1.87724C9.50818 1.87859 9.48535 1.88005 9.46253 1.88163C9.42621 1.88399 9.38978 1.88624 9.35346 1.88905C9.2915 1.89389 9.22954 1.89928 9.16792 1.90547C8.89434 1.93324 8.62481 1.97462 8.36001 2.02882C8.0952 2.08302 7.835 2.15003 7.5802 2.22931C7.4528 2.26889 7.32675 2.31162 7.20216 2.35727C6.89058 2.4714 6.58799 2.60397 6.29563 2.75364C6.23716 2.78355 6.17914 2.81425 6.12145 2.84551C6.0062 2.90814 5.89252 2.97347 5.78075 3.04139C5.63592 3.12943 5.49435 3.22231 5.35559 3.3189C5.28014 3.37152 5.20525 3.42482 5.1316 3.47992C4.19179 4.18281 3.40895 5.08406 2.84526 6.1217C2.814 6.17938 2.7833 6.2374 2.75339 6.29588C2.65129 6.49524 2.55774 6.69955 2.47206 6.90803C2.44158 6.98213 2.41224 7.05668 2.3839 7.13179C2.28146 7.40357 2.19274 7.68198 2.11943 7.96658C2.10268 8.03157 2.08682 8.09691 2.07164 8.16246C1.95043 8.68735 1.88004 9.2317 1.86598 9.78999C1.86418 9.85982 1.86328 9.92976 1.86328 10C1.86328 10.0591 1.86407 10.118 1.86553 10.1767C1.86688 10.2326 1.86868 10.2882 1.87104 10.3439C1.87126 10.3397 1.87149 10.3357 1.87171 10.3316C2.05815 6.00318 5.62557 2.55113 9.9999 2.55113C10.0097 2.55113 10.0194 2.55146 10.0292 2.55146C11.7426 2.55753 13.331 3.09311 14.6395 4.00324C15.1428 4.35328 15.6046 4.75853 16.0163 5.21056C16.7466 6.01252 17.3189 6.96087 17.6838 8.00672C17.9406 8.74312 18.0948 9.52765 18.1288 10.3433C18.1288 10.3436 18.1288 10.3438 18.1288 10.344C18.1311 10.2883 18.1329 10.2327 18.1343 10.1768C18.1357 10.1181 18.1365 10.0593 18.1365 10.0001C18.1365 9.92998 18.1356 9.85993 18.1338 9.7901C18.1197 9.23181 18.0493 8.68746 17.9282 8.16257C17.913 8.0969 17.8971 8.03169 17.8804 7.96669C17.8104 7.69503 17.7265 7.42909 17.6301 7.16912C17.5189 6.86934 17.3907 6.57778 17.2463 6.29588C17.2164 6.2374 17.1857 6.17938 17.1544 6.1217C16.8184 5.50314 16.4042 4.93327 15.9255 4.42479C15.5073 3.98041 15.0399 3.58303 14.5317 3.24154Z" fill="#B26916"/>
<path d="M15.4262 1.98755C15.9319 2.33073 16.4035 2.72035 16.8346 3.15057L15.9256 4.42479C15.5074 3.98041 15.04 3.58303 14.5317 3.24153L15.4262 1.98755Z" fill="#F0A931"/>
<path d="M1.19641 14.0204C0.636327 12.7959 0.32373 11.4345 0.32373 9.99995C0.323843 4.65589 4.656 0.32373 10.0001 0.32373C10.3156 0.32373 10.6274 0.33936 10.9351 0.368821L9.86782 1.86501C9.81261 1.86591 9.75751 1.86737 9.70264 1.86928C9.69387 1.86962 9.6851 1.86996 9.67633 1.8703C9.62786 1.87221 9.57951 1.87434 9.53127 1.87704C9.50834 1.87839 9.48551 1.87985 9.46268 1.88143C9.42636 1.88379 9.38993 1.88604 9.35361 1.88885C9.29165 1.89369 9.2297 1.89908 9.16808 1.90527C8.8945 1.93304 8.62497 1.97442 8.36016 2.02862C8.09535 2.08282 7.83516 2.14983 7.58036 2.22911C7.45296 2.26869 7.32691 2.31142 7.20232 2.35707C6.89073 2.4712 6.58814 2.60377 6.29579 2.75344C6.23732 2.78335 6.17929 2.81405 6.12161 2.84531C6.00635 2.90794 5.89267 2.97327 5.7809 3.04118C5.63607 3.12923 5.49451 3.22211 5.35575 3.3187C5.2803 3.37132 5.20541 3.42462 5.13176 3.47972C4.19194 4.18261 3.4091 5.08386 2.84542 6.1215C2.81416 6.17918 2.78346 6.2372 2.75355 6.29568C2.65145 6.49504 2.5579 6.69935 2.47221 6.90782C2.44174 6.98193 2.41239 7.05648 2.38406 7.13159C2.28162 7.40337 2.1929 7.68178 2.11959 7.96638C2.10283 8.03137 2.08698 8.0967 2.0718 8.16226C1.95058 8.68715 1.88019 9.2315 1.86614 9.78979C1.86434 9.85961 1.86344 9.92955 1.86344 9.99983C1.86344 10.0589 1.86422 10.1178 1.86569 10.1765C1.86704 10.2324 1.86883 10.288 1.8712 10.3437C1.87142 10.3395 1.87165 10.3355 1.87187 10.3314C1.90246 11.0941 2.03683 11.8301 2.2634 12.5248L1.19641 14.0204Z" fill="#F0A931"/>
<path d="M5.74674 18.6932C5.19643 18.4235 4.67537 18.1033 4.18994 17.7382L5.08466 16.4841C5.22533 16.5908 5.36949 16.6931 5.51702 16.7908C5.87751 17.0292 6.25769 17.2401 6.65529 17.4197L5.74674 18.6933V18.6932Z" fill="#F0A931"/>
<path d="M10 19.6764C9.58115 19.6764 9.16847 19.6497 8.76367 19.5981L9.80795 18.1343C9.87182 18.1358 9.9358 18.1368 10.0001 18.1368C10.1569 18.1368 10.3125 18.1318 10.4671 18.1232C14.6301 17.8875 17.9555 14.5226 18.129 10.3432C18.129 10.3434 18.129 10.3437 18.129 10.3439C18.1313 10.2882 18.1331 10.2326 18.1345 10.1767C18.1359 10.118 18.1367 10.0592 18.1367 10C18.1367 9.92988 18.1358 9.85982 18.134 9.79C18.1199 9.23171 18.0495 8.68736 17.9284 8.16247C17.9132 8.0968 17.8973 8.03158 17.8806 7.96659C17.8106 7.69492 17.7268 7.42899 17.6303 7.16902L18.6734 5.70679C19.315 7.00058 19.6764 8.45797 19.6764 10C19.6764 15.3441 15.3443 19.6764 10.0001 19.6764H10Z" fill="#F0A931"/>
<path d="M5.89459 6.17896C5.87345 6.34796 5.88368 6.51741 5.92236 6.67506C5.98387 6.68844 6.04346 6.70666 6.10025 6.72971C5.99062 6.57431 5.92022 6.38271 5.89459 6.17896Z" fill="#B26916"/>
<path d="M13.8994 12.9182C13.9812 13.0343 14.0414 13.1703 14.0773 13.3166C14.6644 13.4449 15.4253 13.1354 15.6404 12.3599C15.6867 12.193 15.6941 12.0302 15.6699 11.8745C15.6627 11.9214 15.6536 11.9685 15.6404 12.0162C15.4028 12.8728 14.4991 13.161 13.8994 12.9182Z" fill="#B26916"/>
<path d="M13.0683 6.00802C13.071 5.93448 13.0679 5.85982 13.0581 5.78516C13.0453 5.88096 13.0217 5.9735 12.9868 6.05963C13.0129 6.04119 13.0403 6.02421 13.0683 6.00802Z" fill="#B26916"/>
<path d="M13.4169 15.1623C13.9677 14.8615 14.1668 14.3019 14.1053 13.8126C14.0567 14.2011 13.8413 14.5867 13.4169 14.8184C13.0283 15.0306 12.6096 14.9939 12.2298 14.7911C11.7254 14.5218 11.2896 13.9593 11.0848 13.2941C10.9631 12.8992 10.7771 12.4067 10.5943 11.9501C10.4361 11.5548 10.2802 11.1864 10.1708 10.9321C10.0791 11.4524 9.94153 12.285 9.87103 12.9638C9.85832 13.0865 9.84753 13.2049 9.83988 13.3147C9.76207 14.4325 9.0413 15.4277 8.1549 15.3694C8.07618 15.3643 7.99624 15.3517 7.91516 15.3292C7.32483 15.1655 7.00459 14.6854 6.94184 14.2065C6.91879 14.3788 6.93127 14.562 6.98041 14.7395C7.09409 15.1505 7.40287 15.5309 7.91516 15.6729C8.13882 15.735 8.35494 15.728 8.55666 15.6671C9.18883 15.476 9.67886 14.7492 9.8111 13.9087C9.82403 13.8261 9.83392 13.7427 9.83977 13.6584C9.88969 12.9407 10.0624 11.89 10.1707 11.2758C10.3105 11.6005 10.5258 12.1113 10.7254 12.6269C10.8625 12.9811 10.9922 13.3377 11.0846 13.6377C11.3273 14.4255 11.8938 15.0693 12.5147 15.2523C12.8128 15.3401 13.1234 15.3222 13.4168 15.162L13.4169 15.1623Z" fill="#B26916"/>
<path d="M13.3631 8.87441C13.133 8.94537 12.8693 9.03836 12.5992 9.13967C12.0626 9.34084 11.4997 9.57528 11.1182 9.73822C11.2767 9.76666 11.4768 9.80163 11.6992 9.83852C12.1411 9.65692 12.6539 9.45508 13.0952 9.3053C13.1882 9.27371 13.2779 9.24447 13.3631 9.21827C14.3683 8.90871 15.1393 8.07201 15.0169 7.26758C14.915 7.95563 14.2251 8.60893 13.3631 8.87441Z" fill="#B26916"/>
<path d="M7.01311 13.5884C6.48439 13.961 5.53873 13.8859 5.11268 13.1056C5.04454 12.9808 5.00282 12.8529 4.98325 12.7241C4.94738 12.9667 4.98393 13.2136 5.11268 13.4494C5.5177 14.1911 6.39196 14.2953 6.93159 13.9836C6.93204 13.9706 6.93249 13.9574 6.93338 13.9444C6.94182 13.8194 6.96836 13.6987 7.01311 13.5883V13.5884Z" fill="#B26916"/>
<path d="M6.37407 9.55661C5.78261 9.51546 5.2259 9.29394 4.84066 8.96358C4.56652 8.72834 4.37986 8.4379 4.33005 8.11743C4.24661 8.66493 4.56753 9.1571 5.08219 9.48611C5.44246 9.71651 5.89697 9.86719 6.37407 9.90047C6.93539 9.93949 7.70024 10.0536 8.30092 10.1534C8.51716 10.0645 8.71686 9.98042 8.88193 9.9098C8.29497 9.80467 7.14319 9.61014 6.37407 9.55661Z" fill="#B26916"/>
</g>
<defs>
<clipPath id="clip0_351_2749">
<rect width="20" height="20" fill="white"/>
</clipPath>
</defs>
</svg>
