<svg width="20" height="20" viewBox="0 0 20 20" fill="none" xmlns="http://www.w3.org/2000/svg">
<path d="M9.16683 1.66602C7.51866 1.66602 5.90749 2.15476 4.53708 3.07044C3.16667 3.98611 2.09857 5.2876 1.46784 6.81032C0.837107 8.33304 0.672079 10.0086 0.993623 11.6251C1.31517 13.2416 2.10884 14.7265 3.27428 15.8919C4.43971 17.0573 5.92457 17.851 7.54108 18.1726C9.15759 18.4941 10.8331 18.3291 12.3559 17.6983C13.8786 17.0676 15.1801 15.9995 16.0957 14.6291C17.0114 13.2587 17.5002 11.6475 17.5002 9.99935C17.5002 8.905 17.2846 7.82137 16.8658 6.81032C16.447 5.79927 15.8332 4.88061 15.0594 4.10679C14.2856 3.33297 13.3669 2.71914 12.3559 2.30035C11.3448 1.88156 10.2612 1.66602 9.16683 1.66602ZM9.16683 16.666C7.84829 16.666 6.55936 16.275 5.46303 15.5425C4.3667 14.8099 3.51222 13.7687 3.00764 12.5506C2.50305 11.3324 2.37103 9.99195 2.62826 8.69875C2.8855 7.40554 3.52044 6.21765 4.45279 5.2853C5.38514 4.35295 6.57302 3.71802 7.86623 3.46078C9.15944 3.20355 10.4999 3.33557 11.7181 3.84015C12.9362 4.34474 13.9774 5.19922 14.71 6.29555C15.4425 7.39188 15.8335 8.68081 15.8335 9.99935C15.8335 11.7675 15.1311 13.4632 13.8809 14.7134C12.6306 15.9636 10.9349 16.666 9.16683 16.666ZM9.16683 4.99935C8.94582 4.99935 8.73386 5.08715 8.57758 5.24343C8.4213 5.39971 8.3335 5.61167 8.3335 5.83268V9.51602L6.5835 10.5243C6.42296 10.6153 6.29716 10.757 6.22582 10.9272C6.15447 11.0973 6.14162 11.2864 6.18929 11.4646C6.23695 11.6429 6.34243 11.8003 6.48918 11.9121C6.63593 12.024 6.81565 12.084 7.00017 12.0827C7.14615 12.0837 7.28983 12.0463 7.41683 11.9743L9.5835 10.7243L9.6585 10.6493L9.79183 10.541C9.82442 10.4998 9.85236 10.455 9.87517 10.4077C9.90233 10.3629 9.92467 10.3155 9.94183 10.266C9.9645 10.213 9.97857 10.1568 9.9835 10.0993L10.0002 9.99935V5.83268C10.0002 5.61167 9.91237 5.39971 9.75609 5.24343C9.59981 5.08715 9.38785 4.99935 9.16683 4.99935Z" fill="#045CCE"/>
</svg>
