<svg width="17" height="17" viewBox="0 0 17 17" fill="none" xmlns="http://www.w3.org/2000/svg">
<path d="M8.33333 0C6.19699 0.00609349 4.14458 0.832428 2.6 2.30833V0.833333C2.6 0.61232 2.5122 0.400358 2.35592 0.244078C2.19964 0.0877973 1.98768 0 1.76667 0C1.54565 0 1.33369 0.0877973 1.17741 0.244078C1.02113 0.400358 0.933333 0.61232 0.933333 0.833333V4.58333C0.933333 4.80435 1.02113 5.01631 1.17741 5.17259C1.33369 5.32887 1.54565 5.41667 1.76667 5.41667H5.51667C5.73768 5.41667 5.94964 5.32887 6.10592 5.17259C6.2622 5.01631 6.35 4.80435 6.35 4.58333C6.35 4.36232 6.2622 4.15036 6.10592 3.99408C5.94964 3.8378 5.73768 3.75 5.51667 3.75H3.51667C4.58815 2.6303 6.01625 1.91888 7.55545 1.73806C9.09464 1.55724 10.6487 1.91831 11.9505 2.7592C13.2524 3.6001 14.2205 4.86826 14.6886 6.34566C15.1567 7.82306 15.0954 9.41738 14.5153 10.8545C13.9353 12.2916 12.8726 13.4817 11.5101 14.2203C10.1476 14.9588 8.57041 15.1995 7.04963 14.9011C5.52886 14.6027 4.15955 13.7838 3.17716 12.5852C2.19476 11.3865 1.66066 9.8831 1.66667 8.33333C1.66667 8.11232 1.57887 7.90036 1.42259 7.74408C1.26631 7.5878 1.05435 7.5 0.833333 7.5C0.61232 7.5 0.400358 7.5878 0.244078 7.74408C0.0877973 7.90036 0 8.11232 0 8.33333C0 9.98151 0.488742 11.5927 1.40442 12.9631C2.3201 14.3335 3.62159 15.4016 5.1443 16.0323C6.66702 16.6631 8.34258 16.8281 9.95909 16.5065C11.5756 16.185 13.0605 15.3913 14.2259 14.2259C15.3913 13.0605 16.185 11.5756 16.5065 9.95909C16.8281 8.34258 16.6631 6.66702 16.0323 5.1443C15.4016 3.62159 14.3335 2.3201 12.9631 1.40442C11.5927 0.488742 9.98151 0 8.33333 0ZM8.33333 5C8.11232 5 7.90036 5.0878 7.74408 5.24408C7.5878 5.40036 7.5 5.61232 7.5 5.83333V8.33333C7.5 8.55435 7.5878 8.76631 7.74408 8.92259C7.90036 9.07887 8.11232 9.16667 8.33333 9.16667H10C10.221 9.16667 10.433 9.07887 10.5893 8.92259C10.7455 8.76631 10.8333 8.55435 10.8333 8.33333C10.8333 8.11232 10.7455 7.90036 10.5893 7.74408C10.433 7.5878 10.221 7.5 10 7.5H9.16667V5.83333C9.16667 5.61232 9.07887 5.40036 8.92259 5.24408C8.76631 5.0878 8.55435 5 8.33333 5Z" fill="#5D5D5D"/>
</svg>
