<svg width="17" height="15" viewBox="0 0 17 15" fill="none" xmlns="http://www.w3.org/2000/svg">
<path d="M14.1667 0.833344H2.5C1.83696 0.833344 1.20107 1.09674 0.732233 1.56558C0.263392 2.03442 0 2.6703 0 3.33334V11.6667C0 12.3297 0.263392 12.9656 0.732233 13.4344C1.20107 13.9033 1.83696 14.1667 2.5 14.1667H14.1667C14.8297 14.1667 15.4656 13.9033 15.9344 13.4344C16.4033 12.9656 16.6667 12.3297 16.6667 11.6667V3.33334C16.6667 2.6703 16.4033 2.03442 15.9344 1.56558C15.4656 1.09674 14.8297 0.833344 14.1667 0.833344ZM2.5 2.50001H14.1667C14.3877 2.50001 14.5996 2.58781 14.7559 2.74409C14.9122 2.90037 15 3.11233 15 3.33334L8.33333 7.40001L1.66667 3.33334C1.66667 3.11233 1.75446 2.90037 1.91074 2.74409C2.06702 2.58781 2.27899 2.50001 2.5 2.50001ZM15 11.6667C15 11.8877 14.9122 12.0997 14.7559 12.2559C14.5996 12.4122 14.3877 12.5 14.1667 12.5H2.5C2.27899 12.5 2.06702 12.4122 1.91074 12.2559C1.75446 12.0997 1.66667 11.8877 1.66667 11.6667V5.23334L7.9 9.04168C8.02668 9.11482 8.17039 9.15332 8.31667 9.15332C8.46295 9.15332 8.60665 9.11482 8.73333 9.04168L15 5.23334V11.6667Z" fill="#888888"/>
</svg>
