<svg width="18" height="19" viewBox="0 0 18 19" fill="none" xmlns="http://www.w3.org/2000/svg">
<path d="M10.8974 7.6025L7.10244 11.3975C6.61494 10.91 6.31494 10.2425 6.31494 9.5C6.31494 8.015 7.51494 6.815 8.99994 6.815C9.74244 6.815 10.4099 7.115 10.8974 7.6025Z" stroke="#888888" stroke-width="1.5" stroke-linecap="round" stroke-linejoin="round"/>
<path d="M13.3649 4.82749C12.0524 3.83749 10.5524 3.29749 8.99988 3.29749C6.35238 3.29749 3.88488 4.85749 2.16738 7.55749C1.49238 8.61499 1.49238 10.3925 2.16738 11.45C2.75988 12.38 3.44988 13.1825 4.19988 13.8275" stroke="#888888" stroke-width="1.5" stroke-linecap="round" stroke-linejoin="round"/>
<path d="M6.31494 15.1475C7.16994 15.5075 8.07744 15.7025 8.99994 15.7025C11.6474 15.7025 14.1149 14.1425 15.8324 11.4425C16.5074 10.385 16.5074 8.60751 15.8324 7.55001C15.5849 7.16001 15.3149 6.79251 15.0374 6.44751" stroke="#888888" stroke-width="1.5" stroke-linecap="round" stroke-linejoin="round"/>
<path d="M11.6326 10.025C11.4376 11.0825 10.5751 11.945 9.51758 12.14" stroke="#888888" stroke-width="1.5" stroke-linecap="round" stroke-linejoin="round"/>
<path d="M7.1025 11.3975L1.5 17" stroke="#888888" stroke-width="1.5" stroke-linecap="round" stroke-linejoin="round"/>
<path d="M16.5 2L10.8975 7.6025" stroke="#888888" stroke-width="1.5" stroke-linecap="round" stroke-linejoin="round"/>
</svg>
