<svg width="61" height="61" viewBox="0 0 61 61" fill="none" xmlns="http://www.w3.org/2000/svg">
<path fill-rule="evenodd" clip-rule="evenodd" d="M18.3001 18.3V15.25C18.3001 10.1966 22.3967 6.09998 27.4501 6.09998H33.5501C38.6035 6.09998 42.7001 10.1966 42.7001 15.25V18.3H48.8001C52.169 18.3 54.9001 21.031 54.9001 24.4V35.2908C47.3045 38.1089 39.0855 39.6498 30.5002 39.6498C21.9148 39.6498 13.6957 38.1089 6.1001 35.2908V24.4C6.1001 21.031 8.83116 18.3 12.2001 18.3H18.3001ZM24.4001 15.25C24.4001 13.5655 25.7656 12.2 27.4501 12.2H33.5501C35.2346 12.2 36.6001 13.5655 36.6001 15.25V18.3H24.4001V15.25ZM27.4501 30.5C27.4501 28.8155 28.8156 27.45 30.5001 27.45H30.5306C32.2151 27.45 33.5806 28.8155 33.5806 30.5C33.5806 32.1844 32.2151 33.55 30.5306 33.55H30.5001C28.8156 33.55 27.4501 32.1844 27.4501 30.5Z" fill="#000046"/>
<path d="M6.1001 41.7614V48.8C6.1001 52.1689 8.83116 54.9 12.2001 54.9H48.8001C52.169 54.9 54.9001 52.1689 54.9001 48.8V41.7614C47.2361 44.3483 39.0291 45.7498 30.5002 45.7498C21.9712 45.7498 13.7641 44.3483 6.1001 41.7614Z" fill="#000046"/>
</svg>
