<svg width="16" height="17" viewBox="0 0 16 17" fill="none" xmlns="http://www.w3.org/2000/svg">
<path d="M4.16667 6.66667H5C5.22101 6.66667 5.43297 6.57887 5.58926 6.42259C5.74554 6.26631 5.83333 6.05435 5.83333 5.83333C5.83333 5.61232 5.74554 5.40036 5.58926 5.24408C5.43297 5.0878 5.22101 5 5 5H4.16667C3.94565 5 3.73369 5.0878 3.57741 5.24408C3.42113 5.40036 3.33333 5.61232 3.33333 5.83333C3.33333 6.05435 3.42113 6.26631 3.57741 6.42259C3.73369 6.57887 3.94565 6.66667 4.16667 6.66667ZM7.5 11.6667H4.16667C3.94565 11.6667 3.73369 11.7545 3.57741 11.9107C3.42113 12.067 3.33333 12.279 3.33333 12.5C3.33333 12.721 3.42113 12.933 3.57741 13.0893C3.73369 13.2455 3.94565 13.3333 4.16667 13.3333H7.5C7.72101 13.3333 7.93297 13.2455 8.08926 13.0893C8.24554 12.933 8.33333 12.721 8.33333 12.5C8.33333 12.279 8.24554 12.067 8.08926 11.9107C7.93297 11.7545 7.72101 11.6667 7.5 11.6667ZM7.5 8.33333H4.16667C3.94565 8.33333 3.73369 8.42113 3.57741 8.57741C3.42113 8.73369 3.33333 8.94565 3.33333 9.16667C3.33333 9.38768 3.42113 9.59964 3.57741 9.75592C3.73369 9.9122 3.94565 10 4.16667 10H7.5C7.72101 10 7.93297 9.9122 8.08926 9.75592C8.24554 9.59964 8.33333 9.38768 8.33333 9.16667C8.33333 8.94565 8.24554 8.73369 8.08926 8.57741C7.93297 8.42113 7.72101 8.33333 7.5 8.33333ZM13.2667 6.15C13.3305 5.99824 13.3479 5.83098 13.3168 5.66932C13.2856 5.50766 13.2073 5.35885 13.0917 5.24167L8.09167 0.241667C8.02278 0.176847 7.94402 0.123401 7.85833 0.0833333C7.83346 0.0798001 7.80821 0.0798001 7.78333 0.0833333L7.55 0H2.5C1.83696 0 1.20107 0.263392 0.732233 0.732233C0.263392 1.20107 0 1.83696 0 2.5V14.1667C0 14.8297 0.263392 15.4656 0.732233 15.9344C1.20107 16.4033 1.83696 16.6667 2.5 16.6667H7.5C7.72101 16.6667 7.93297 16.5789 8.08926 16.4226C8.24554 16.2663 8.33333 16.0543 8.33333 15.8333C8.33333 15.6123 8.24554 15.4004 8.08926 15.2441C7.93297 15.0878 7.72101 15 7.5 15H2.5C2.27899 15 2.06702 14.9122 1.91074 14.7559C1.75446 14.5996 1.66667 14.3877 1.66667 14.1667V2.5C1.66667 2.27899 1.75446 2.06702 1.91074 1.91074C2.06702 1.75446 2.27899 1.66667 2.5 1.66667H6.66667V4.16667C6.66667 4.82971 6.93006 5.46559 7.3989 5.93443C7.86774 6.40327 8.50362 6.66667 9.16667 6.66667H12.5C12.6645 6.66585 12.8251 6.61634 12.9616 6.5244C13.098 6.43245 13.2041 6.30218 13.2667 6.15ZM9.16667 5C8.94565 5 8.73369 4.9122 8.57741 4.75592C8.42113 4.59964 8.33333 4.38768 8.33333 4.16667V2.84167L10.4917 5H9.16667ZM15 8.33333H10.8333C10.6123 8.33333 10.4004 8.42113 10.2441 8.57741C10.0878 8.73369 10 8.94565 10 9.16667V15.8333C10.0004 15.9841 10.0417 16.1319 10.1195 16.261C10.1972 16.3902 10.3086 16.4958 10.4417 16.5667C10.572 16.6336 10.7176 16.665 10.8639 16.6576C11.0102 16.6503 11.152 16.6046 11.275 16.525L12.9167 15.4417L14.5833 16.525C14.7078 16.597 14.8488 16.6356 14.9926 16.6369C15.1364 16.6383 15.2782 16.6024 15.404 16.5328C15.5298 16.4631 15.6355 16.3621 15.7107 16.2396C15.786 16.117 15.8282 15.9771 15.8333 15.8333V9.16667C15.8333 8.94565 15.7455 8.73369 15.5893 8.57741C15.433 8.42113 15.221 8.33333 15 8.33333ZM14.1667 14.2667L13.3833 13.7417C13.2455 13.6485 13.083 13.5987 12.9167 13.5987C12.7503 13.5987 12.5878 13.6485 12.45 13.7417L11.6667 14.2667V10H14.1667V14.2667Z" fill="#4F4F4F"/>
</svg>
