<svg width="42" height="31" viewBox="0 0 42 31" fill="none" xmlns="http://www.w3.org/2000/svg">
<path d="M31.5767 1.79936C29.2218 1.63047 24.2564 3.42791 23.8098 6.23842C20.3662 3.41393 15.4 3.69977 11.8878 6.145C11.7498 6.23967 11.7404 6.37256 11.7944 6.492C11.7629 6.55758 11.7469 6.63296 11.7577 6.7092C11.9232 7.86526 12.276 9.11254 12.6978 10.3125C11.1954 8.66726 9.31096 7.15528 7.3841 7.11171C-0.513139 6.95144 3.34163 23.9231 4.77121 27.6583C4.85164 27.8638 5.03878 27.8961 5.20156 27.8224C6.06582 29.0072 7.91364 29.0544 9.04255 28.1151C10.6965 26.7374 10.659 24.3698 9.85893 22.5366C9.99238 21.4939 11.2068 20.8114 12.1622 21.8132C13.1594 22.8521 12.6729 24.2705 12.7399 25.5194C12.7482 25.7009 12.8764 25.8243 13.0162 25.8536C13.1005 26.3659 13.2482 26.8647 13.5307 27.1386C14.0399 27.646 15.2118 27.7643 15.8908 27.7645C17.5994 27.7562 19.1506 26.9172 20.0663 25.5126C20.0825 25.4961 20.0831 25.4698 20.0993 25.4533C20.141 25.4903 20.1955 25.5245 20.2612 25.5499C23.4624 26.7961 28.4682 24.8265 30.1621 21.6799C32.4659 22.8151 35.4707 21.8713 37.1233 20.0816C39.2702 17.7487 38.9242 14.9359 38.3825 12.0532C38.3079 11.6698 37.847 11.6627 37.6487 11.901C37.6744 11.7516 37.5743 11.5765 37.3978 11.5615C36.0995 11.4437 34.6601 11.755 33.3912 11.9975C33.1183 12.0553 33.0188 12.2597 33.0455 12.4634C32.9505 12.5424 32.9016 12.6771 32.9628 12.8278C33.2765 13.5859 32.968 14.6198 32.183 14.9693C31.176 15.4247 30.3473 14.54 29.9699 13.7364C29.9656 13.7177 29.9422 13.7029 29.9316 13.6856C29.6299 12.7481 29.3791 11.8 29.3391 10.8137C29.3144 10.1841 29.3438 9.47107 29.6977 8.92493C30.6154 7.50026 32.5468 8.28893 32.6586 9.84902C32.6623 9.89406 32.6786 9.93639 32.6887 9.98008C32.5144 10.2068 32.6695 10.5928 33.0356 10.5349C34.5205 10.3056 36.466 9.82161 37.5493 8.74145C37.6302 8.65888 37.6566 8.54203 37.6513 8.43189C37.8375 8.37285 37.9796 8.23806 37.9675 8.01156C37.7377 4.68982 34.9658 2.03722 31.5675 1.78821L31.5767 1.79936ZM15.7781 26.7806C15.0942 26.7879 14.384 26.7093 14.0481 26.0867C13.8635 25.7462 13.7534 25.3245 13.6271 24.9193C14.0086 23.1304 13.4578 20.7012 11.3467 20.4349C10.1818 20.2889 9.23486 21.2093 9.12885 22.2265C8.9372 22.3194 8.79384 22.5068 8.87652 22.7511C9.30586 24.1 9.68831 25.5635 8.83575 26.8369C8.05835 28.0028 6.46827 28.2087 5.42912 27.2769C4.92269 23.9679 4.18159 20.7675 4.02856 17.4033C3.95551 15.8088 3.8886 14.1542 4.07742 12.5697C4.02887 10.0669 5.60194 8.77179 8.78391 8.68704C9.33054 9.00978 9.8364 9.38695 10.3015 9.81857C15.0359 13.6852 17.1455 19.6586 18.9537 25.2181C18.2061 26.1945 17.0428 26.7811 15.7732 26.7881L15.7781 26.7806ZM29.1088 21.1503C27.5283 23.8344 23.5061 25.2751 20.5386 24.6993C20.3436 24.662 20.1858 24.7282 20.0838 24.8348C18.7843 20.7383 17.3315 16.5826 14.8339 13.0081C14.5864 12.6547 14.2957 12.2581 13.9803 11.8407C13.7367 10.1121 13.2595 8.17784 12.571 6.56971C15.4743 5.24161 18.658 4.6133 21.6696 6.1353C23.5904 7.10947 25.4613 8.99735 24.689 11.2878C24.197 12.7402 22.7759 13.6824 21.7037 14.6948C21.5841 14.8117 21.5507 14.9562 21.5646 15.1038C21.2908 15.3319 21.4605 15.8392 21.8978 15.7728C23.5985 15.4978 25.3743 15.3181 26.9992 16.0473C28.9741 16.938 30.3046 19.1105 29.1123 21.1365L29.1088 21.1503ZM33.4379 9.67747C33.3231 7.64026 30.7382 6.44022 29.2263 8.08888C27.8522 9.58401 28.3788 12.1688 29.3017 14.0153C29.4094 15.4126 31.1422 16.3219 32.4328 15.8261C33.6135 15.3732 34.1446 14.0042 33.6878 12.8837C34.9499 12.7277 36.3524 12.5747 37.5152 12.0733C37.5519 12.059 37.5588 12.0313 37.5799 12.0072C37.568 12.0424 37.5547 12.0715 37.5506 12.1116C37.3134 14.4131 38.388 16.4565 36.9759 18.6272C35.4164 21.0255 33.0268 21.2566 30.4194 21.1477C30.5117 20.9122 30.59 20.6731 30.6463 20.4256C31.6396 16.053 27.0445 14.3885 23.3976 14.7092C25.9628 12.5168 27.109 9.36181 24.2911 6.65352C25.3596 4.52284 28.6704 2.85322 30.8489 2.80424C34.0415 2.73687 36.6511 4.97226 36.9931 8.08698C36.9988 8.11195 37.0046 8.13691 37.0167 8.16053C36.4225 8.38451 35.8823 8.72795 35.3016 8.9818C34.6969 9.24726 34.0695 9.47172 33.4364 9.67122L33.4379 9.67747Z" fill="#FFB2B3"/>
<path d="M9.96531 14.6967C9.38443 14.6564 8.50662 14.9728 8.0559 15.4993C8.04956 15.5007 8.03831 15.5096 8.0334 15.5172C8.0334 15.5172 8.02359 15.5323 8.02502 15.5385C7.89025 15.7043 7.80066 15.8931 7.77385 16.0947C7.55678 16.9441 8.00195 17.9278 8.79704 18.3801C9.94378 19.0324 11.2226 18.2913 11.5839 17.1436C11.9451 15.9958 11.2405 14.7796 9.97165 14.6954L9.96531 14.6967ZM10.7231 16.8685C10.5126 17.5728 9.76216 18.0386 9.07421 17.5898C8.73729 17.3671 8.51346 17.0291 8.42764 16.6553C8.42764 16.6553 8.43888 16.6464 8.44379 16.6388C8.60782 16.3689 8.64916 16.0858 8.91275 15.8733C9.12644 15.7039 9.40657 15.5924 9.68628 15.5658C10.4733 15.4907 10.9357 16.1441 10.7295 16.8671L10.7231 16.8685Z" fill="#FFB2B3"/>
<path d="M21.0926 19.3105C20.9755 19.3222 20.8572 19.3865 20.799 19.51C20.695 19.6367 20.685 19.7958 20.7355 19.929C20.7309 20.6627 21.0953 21.4097 21.4981 22.0048C21.6094 22.1709 21.7824 22.1997 21.924 22.1501C21.9623 22.2009 22.0104 22.2365 22.0972 22.2377C23.4778 22.194 25.4872 21.5266 25.5834 19.9167C25.701 17.9359 22.2619 18.7228 21.0785 19.307L21.0926 19.3105ZM24.6925 20.2099C24.3501 21.2113 23.0493 21.4867 22.1357 21.739C22.1314 21.7202 22.1286 21.7078 22.1228 21.6828C21.8501 21.1322 21.7466 20.5654 21.588 19.9906C22.0734 19.757 22.578 19.5782 23.1303 19.5202C23.6825 19.4622 24.9973 19.3343 24.6925 20.2099Z" fill="#FFB2B3"/>
<path d="M17.596 9.04579C17.4438 9.01925 17.2469 9.14581 17.301 9.32374C17.311 9.36734 17.3196 9.40472 17.336 9.44698C17.2963 9.59253 17.3468 9.72552 17.4393 9.81042C17.5298 10.1178 17.6204 10.4252 17.7123 10.7388C17.8426 11.1619 17.9309 11.633 18.1759 12.0057C18.2581 12.132 18.4512 12.1629 18.5849 12.1085C19.8512 12.5589 21.3624 11.0373 20.9728 9.77443C20.5519 8.43324 18.5193 8.06014 17.596 9.04579ZM19.7218 11.156C19.3873 11.4358 19.0451 11.5082 18.6476 11.4552C18.5203 10.9009 18.2641 10.3347 18.0213 9.79828C18.0311 9.78314 18.0501 9.77912 18.0599 9.76398C18.5433 9.11961 19.8856 9.14898 20.1619 10.0048C20.3014 10.439 20.0514 10.8838 19.7218 11.156Z" fill="#FFB2B3"/>
<path d="M33.3471 7.2041C33.1202 6.79469 32.5714 6.51873 32.1597 6.31832C31.6936 6.08368 31.2164 5.91673 30.7014 5.81661C30.4502 5.76521 30.3203 6.126 30.5758 6.1961C31.0366 6.32076 31.4757 6.49577 31.8798 6.75006C32.2592 6.98345 32.5496 7.37944 32.9409 7.57764C33.181 7.69673 33.4905 7.48092 33.3486 7.21034L33.3471 7.2041Z" fill="#FFB2B3"/>
<path d="M31.4704 5.08609C31.2668 5.09653 31.1601 5.41302 31.3984 5.46708C32.3095 5.67265 32.9098 6.08768 33.3445 6.91005C33.536 7.28098 34.074 6.99077 33.9157 6.61936C33.5358 5.74621 32.4476 5.0295 31.4704 5.08609Z" fill="#FFB2B3"/>
<path d="M26.5076 19.9427C26.3501 20.3293 26.2878 20.6956 25.999 21.0315C25.7087 21.3611 25.3313 21.5718 24.8935 21.6645C24.6016 21.7263 24.7088 22.1352 24.9937 22.1011C25.9972 21.9802 27.1773 21.0633 27.0594 19.9698C27.0301 19.6686 26.6013 19.7136 26.5076 19.9427Z" fill="#FFB2B3"/>
<path d="M27.5236 20.1531C27.0819 20.632 26.8057 21.311 26.482 21.8695C26.3439 22.1077 26.6857 22.3228 26.8471 22.0992C27.233 21.5799 27.7485 21.0461 28.0052 20.4561C28.1235 20.1894 27.7131 19.9365 27.5158 20.1482L27.5236 20.1531Z" fill="#FFB2B3"/>
<path d="M7.6003 13.8296C6.33817 13.9465 5.58065 15.5957 6.19284 16.6416C6.29133 16.8101 6.58976 16.7209 6.53133 16.5243C6.23716 15.5613 6.78874 14.6935 7.74961 14.451C8.15718 14.3451 8.01092 13.7949 7.60807 13.8344L7.6003 13.8296Z" fill="#FFB2B3"/>
<path d="M6.10083 12.819C5.84616 13.043 5.61419 13.308 5.37794 13.5543C5.16278 13.7765 4.92571 13.9902 4.73817 14.2458C4.63212 14.3925 4.82757 14.6062 4.98458 14.5076C5.25214 14.3397 5.48286 14.1274 5.72279 13.9261C5.74531 13.9083 5.76148 13.8917 5.784 13.8739C5.90271 13.9273 6.04805 13.9227 6.14285 13.7849C6.27838 13.5926 6.41882 13.3928 6.55436 13.2006C6.75521 12.916 6.34281 12.5977 6.08671 12.8155L6.10083 12.819Z" fill="#FFB2B3"/>
</svg>
