<svg width="50" height="45" viewBox="0 0 50 45" fill="none" xmlns="http://www.w3.org/2000/svg">
<path d="M48.1002 28.3547C47.3986 24.2073 46.0548 20.1179 44.9471 16.0603C43.8284 11.9716 42.7779 7.85514 41.5199 3.80621C41.4949 3.72816 41.4518 3.67507 41.4033 3.62288C41.6109 3.39633 41.6208 3.00548 41.2348 2.88911C34.9004 0.932818 27.3638 1.98947 22.1284 6.08753C22.0791 6.06288 22.0252 6.04448 21.9623 6.03854C14.7524 5.0837 6.42887 7.96566 2.64343 14.3265C2.53041 14.5153 2.65063 14.6871 2.80846 14.721C2.81315 14.7476 2.80596 14.7707 2.81064 14.7974C2.92494 15.2551 3.03284 15.7085 3.14714 16.1663C2.68631 16.6161 2.22298 17.1156 1.87004 17.635C1.77138 17.7776 1.84242 17.9576 1.96498 18.0467C2.80258 22.6154 4.03732 27.1396 5.098 31.6655C6.05813 35.7478 6.84637 39.9081 8.93845 43.6148C9.10207 43.9054 9.54964 43.732 9.48906 43.4516C9.71884 43.0952 9.95954 42.7371 10.2112 42.3771C10.2355 42.5155 10.2599 42.654 10.2788 42.7934C10.3285 43.0756 10.6579 43.1576 10.8731 43.0065C15.4621 39.8058 20.3756 37.5869 25.8937 36.3742C25.921 36.3697 25.9355 36.3563 25.9564 36.3473C26.464 37.282 27.779 37.6269 28.7678 37.2369C29.9676 36.7678 30.5727 35.4114 30.4274 34.2023C30.4899 34.3015 30.6096 34.3747 30.769 34.3535C35.7769 33.7578 40.8771 32.8233 45.72 31.4494C46.0149 31.3672 46.0927 31.0746 46.0052 30.8645C46.3662 30.9029 46.7328 30.9403 47.1003 30.983C47.393 31.0163 47.6278 30.7523 47.5845 30.4745C47.5085 30.0103 47.4379 29.5452 47.3618 29.0811C47.5195 29.0821 47.6781 29.0885 47.8358 29.0896C48.2979 29.0946 48.421 28.5478 48.0993 28.3494L48.1002 28.3547ZM20.9996 6.92847C22.3722 11.3091 23.5782 15.734 24.5749 20.2158C25.431 24.0907 25.8025 28.1836 26.9718 31.9842C23.3638 30.8824 18.8179 32.2177 15.6243 33.9189C13.238 35.1893 10.0767 37.3292 9.07988 40.0392C8.9595 36.2222 7.81658 32.2198 7.06988 28.5514C6.11972 23.8864 5.0648 19.2334 3.83333 14.6319C3.77852 14.4163 3.61757 14.3007 3.44147 14.2589C8.12135 9.30536 13.9926 6.29602 21.0051 6.92756L20.9996 6.92847ZM9.19726 42.848C7.24568 38.9808 6.48317 34.6791 5.46793 30.5074C4.45269 26.3357 3.5775 22.0967 2.3565 17.9703C2.69197 17.6073 3.0126 17.1919 3.29858 16.7714C4.27275 20.7417 5.20868 24.7184 6.02627 28.7258C6.88681 32.9453 7.16349 37.6186 8.6839 41.6566C8.71435 41.7337 8.78648 41.7601 8.85938 41.7589C9.0842 42.0776 9.691 42.042 9.767 41.5469C10.2689 38.0699 14.7132 35.2936 17.7486 34.0682C17.9741 33.9757 18.1935 33.9117 18.4155 33.8307C14.4314 35.834 10.9958 39.3243 9.20725 42.8409L9.19726 42.848ZM30.6455 33.6835C30.4825 33.7162 30.3956 33.8294 30.3715 33.9486C30.1862 33.5026 29.4743 33.6764 29.5096 34.1967C29.5656 35.0261 29.3522 35.9552 28.5331 36.3826C27.724 36.8029 26.8336 36.4419 26.3564 35.7433C26.3022 35.6591 26.2337 35.6212 26.1598 35.6171C26.0718 35.5003 25.9302 35.4308 25.7344 35.469C22.7691 36.1016 19.8926 37.0153 17.161 38.305C16.0244 38.8458 14.908 39.4379 13.8357 40.0885C13.0433 40.5718 11.3738 42.3034 10.7246 41.6829C14.4603 36.7336 20.6222 31.9874 27.0841 33.1659C27.016 33.2266 26.947 33.282 26.878 33.3374C26.7374 33.465 26.8844 33.7255 27.0699 33.6287C32.8793 30.4598 38.6489 30.1973 44.9757 30.768C40.1925 31.6495 35.3999 32.6697 30.6455 33.6835ZM45.1064 29.8801C44.0691 29.867 43.0174 29.6755 41.9772 29.6136C40.04 29.5043 38.0923 29.4954 36.1658 29.7023C33.1461 30.026 30.1052 30.8686 27.6851 32.6818C27.6646 32.5975 27.6223 32.5168 27.55 32.4577C27.6318 32.4111 27.6871 32.3416 27.6857 32.2377C27.6847 32.2323 27.6829 32.2217 27.6819 32.2164C27.6929 32.2145 27.7038 32.2127 27.7074 32.2012C30.1058 30.0408 34.0977 29.6806 37.2429 29.303C40.338 28.9283 43.3878 28.9997 46.4759 29.0647C46.6452 30.3465 46.1144 29.887 45.1 29.8757L45.1064 29.8801ZM35.4971 28.6191C32.7733 29.0578 29.7068 29.499 27.6452 31.4003C27.4274 27.6051 26.4364 23.7308 25.6194 20.0467C24.6477 15.6429 23.4658 11.2908 22.1172 6.98289C22.2373 6.92994 22.3142 6.82389 22.3556 6.70735C28.1023 3.37349 34.0696 2.157 40.682 3.74341C40.6595 3.80747 40.6544 3.8741 40.6749 3.95839C41.7672 8.24878 43.0553 12.501 44.2297 16.7777C45.2769 20.5878 46.126 24.5186 47.4617 28.2421C43.5493 27.7119 39.3647 28.0001 35.4935 28.6306L35.4971 28.6191Z" fill="#7772D3"/>
<path d="M20.9365 34.413C19.6113 34.777 18.4534 35.6447 17.5477 36.6348C17.4018 36.7962 17.6755 37.041 17.8287 36.8893C18.7958 35.9602 19.8669 35.4304 21.093 34.9186C21.3649 34.8019 21.2324 34.3362 20.932 34.4192L20.9365 34.413Z" fill="#7772D3"/>
<path d="M21.6195 35.1646C21.004 35.4703 20.3875 35.7707 19.7775 36.0754C19.6065 36.1588 19.7308 36.4176 19.9027 36.3396C20.5274 36.0543 21.1522 35.769 21.7715 35.4846C21.9797 35.3895 21.8269 35.0642 21.6205 35.17L21.6195 35.1646Z" fill="#7772D3"/>
<path d="M44.5581 23.1198C39.5879 22.6513 34.4449 23.9493 30.13 26.3423C29.9146 26.4605 30.0629 26.792 30.2975 26.687C34.9546 24.5767 39.3957 23.7962 44.4981 23.7054C44.879 23.6966 44.9584 23.1571 44.5581 23.1198Z" fill="#7772D3"/>
<path d="M42.023 19.131C37.6017 18.9051 33.1661 19.8766 29.348 22.0878C29.149 22.2033 29.2881 22.5145 29.5064 22.4122C33.534 20.5606 37.4923 19.6579 41.9533 19.7895C42.3826 19.8 42.4551 19.1575 42.0175 19.1319L42.023 19.131Z" fill="#7772D3"/>
<path d="M40.1406 15.4053C35.9257 15.0737 31.6687 16.0372 28.0195 18.1216C27.815 18.238 27.9605 18.5535 28.1787 18.4513C32.026 16.6298 35.8072 15.839 40.0847 15.919C40.4228 15.9227 40.4825 15.4304 40.1351 15.4062L40.1406 15.4053Z" fill="#7772D3"/>
<path d="M39.1518 5.05145C36.6936 5.2101 34.2544 5.50809 31.8361 5.98897C30.1899 6.31889 26.6824 6.58712 25.3939 7.7672C23.9221 9.12042 26.2493 12.6289 27.2583 13.7923C27.4498 14.0179 27.7419 13.9198 27.8668 13.7345C27.8905 13.7414 27.9124 13.7378 27.9397 13.7332C31.9653 12.6055 36.016 11.7477 40.1749 11.25C40.4118 11.2214 40.538 10.9482 40.4459 10.7443C39.6164 9.00275 39.3542 7.35276 39.5939 5.45446C39.6264 5.1914 39.385 5.0344 39.1518 5.05145ZM39.2199 9.7542C39.0554 11.185 37.3682 10.9297 35.9377 11.2072C33.1961 11.7366 30.5074 12.4709 27.8715 13.3774C27.8623 13.357 27.854 13.3419 27.8393 13.3225C27.2812 12.6757 26.834 11.9885 26.4804 11.2254C26.035 10.5159 25.8528 9.76801 25.9437 8.97443C25.7344 8.26393 26.06 7.94092 26.9152 8.00631C28.1751 7.3353 30.0571 7.13043 31.4565 6.83628C33.0024 6.51215 34.566 6.25633 36.1364 6.07064C36.539 6.02529 37.8943 5.67271 38.2379 5.86743C38.9316 6.2613 38.605 6.579 38.7288 7.31476C38.8385 7.93778 39.2972 9.13832 39.2263 9.75861L39.2199 9.7542Z" fill="#7772D3"/>
<path d="M29.6763 7.93969C28.8068 8.30426 27.9456 8.6839 27.0907 9.06794C26.9079 9.14783 27.0386 9.41103 27.2233 9.3418C28.1039 9.00826 28.9836 8.6694 29.854 8.31015C30.1005 8.20866 29.9228 7.8382 29.6763 7.93969Z" fill="#7772D3"/>
<path d="M30.871 8.68837C30.0227 8.91784 29.1707 9.126 28.3353 9.39716C28.1433 9.45665 28.2468 9.75729 28.4435 9.72441C29.2886 9.57223 30.1233 9.36148 30.9554 9.16761C31.2695 9.09868 31.1769 8.60437 30.871 8.68837Z" fill="#7772D3"/>
<path d="M23.8552 27.6649C23.3476 26.1546 22.8952 24.5748 22.1866 23.1364C22.2104 22.9844 22.1496 22.8302 21.9469 22.7654C20.0948 22.1485 17.725 23.0653 15.9469 23.6365C13.6574 24.3699 11.4313 25.3997 9.51881 26.8376C9.31585 26.5152 8.69953 26.6566 8.7837 27.1029C9.29462 29.6871 9.59618 32.3281 10.1936 34.8923C10.202 34.9402 10.2404 34.9667 10.277 34.9825C10.2479 35.0093 10.2189 35.0361 10.1898 35.0629C10.0266 35.2217 10.243 35.4925 10.4236 35.3362C14.2451 32.1213 18.6584 30.3203 23.7026 30.0584C23.7383 30.1018 23.7841 30.138 23.8389 30.1617C23.8754 30.1775 23.9065 30.1943 23.943 30.2101C24.0773 30.2699 24.2976 30.2112 24.3708 30.0838C24.7531 29.4115 24.0588 28.3106 23.8461 27.6774L23.8552 27.6649ZM10.4747 34.796C10.5758 32.3014 10.1517 29.7631 9.64873 27.3202C11.3851 26.416 13.0712 25.482 14.9199 24.8003C16.6521 24.16 19.7551 22.9672 21.6769 23.4683C21.7298 23.4814 21.7809 23.4838 21.831 23.4809C22.0511 24.5404 22.4024 25.578 22.7355 26.6077C22.9261 27.2117 23.1958 28.9043 23.7677 29.3733C23.733 29.3682 23.7029 29.3567 23.6637 29.3578C18.6757 29.5555 14.0658 31.4222 10.4802 34.7951L10.4747 34.796Z" fill="#7772D3"/>
<path d="M16.788 29.4706C15.7855 29.8464 14.7734 30.328 13.8389 30.835C13.6589 30.9309 13.7813 31.179 13.9715 31.1088C14.9778 30.7543 16.0165 30.3286 16.9721 29.8455C17.2148 29.7227 17.0464 29.3726 16.7935 29.4697L16.788 29.4706Z" fill="#7772D3"/>
<path d="M17.1081 28.6389C16.1976 28.8349 15.2827 29.229 14.4185 29.5598C14.2556 29.6254 14.3371 29.8968 14.5146 29.8507C15.4131 29.6183 16.3927 29.3998 17.2394 29.0336C17.4586 28.9366 17.3512 28.5818 17.1126 28.6327L17.1081 28.6389Z" fill="#7772D3"/>
<path d="M20.2576 18.0538C15.9689 18.8692 11.516 20.4136 7.93521 22.8867C7.81438 22.9672 7.94287 23.154 8.07291 23.0939C12.1344 21.275 15.9938 19.6818 20.3681 18.6822C20.7733 18.5871 20.6764 17.9728 20.2576 18.0538Z" fill="#7772D3"/>
<path d="M19.2283 15.5619C14.5731 15.989 10.0512 17.397 5.97617 19.6183C5.75528 19.7374 5.91188 20.084 6.14557 19.9737C10.3794 17.9835 14.6762 16.7666 19.3287 16.1645C19.7303 16.1138 19.6163 15.5299 19.2237 15.5681L19.2283 15.5619Z" fill="#7772D3"/>
<path d="M18.3974 10.8719C13.7509 11.5717 9.22261 13.359 5.50866 16.1942C5.34521 16.3202 5.52615 16.6133 5.7088 16.5006C9.74982 14.0218 13.7903 12.3709 18.5118 11.5545C18.9599 11.4796 18.8418 10.8086 18.3929 10.8782L18.3974 10.8719Z" fill="#7772D3"/>
<path d="M19.0384 7.60736C17.6726 7.67665 16.2475 7.92029 14.9296 8.29401C14.7212 8.35625 14.7636 8.6616 14.9886 8.62949C16.3638 8.4216 17.7373 8.23592 19.119 8.06531C19.4269 8.02483 19.3336 7.59092 19.0384 7.60736Z" fill="#7772D3"/>
<path d="M19.1144 8.90449C18.0458 8.80899 16.9143 8.89941 15.8418 8.9416C15.6513 8.94602 15.6674 9.26126 15.8543 9.26841C16.9309 9.31324 18.055 9.40494 19.13 9.313C19.3687 9.29503 19.3487 8.92563 19.1144 8.90449Z" fill="#7772D3"/>
</svg>
