<svg width="68" height="40" viewBox="0 0 68 40" fill="none" xmlns="http://www.w3.org/2000/svg">
<path d="M67.4031 8.67844C67.2854 8.6312 67.1608 8.5907 67.043 8.54347C66.9807 8.44899 66.8769 8.38152 66.7176 8.38152C66.683 8.38152 66.6553 8.38152 66.6207 8.38152C56.8299 4.60256 46.1112 2.42292 35.808 0.398483C35.7041 0.15555 35.4549 -0.0401572 35.1225 0.0070797C34.804 0.0543166 34.4785 0.0948137 34.16 0.142051C33.6822 0.209532 33.5922 0.796614 33.8415 1.12727C34.9286 3.51611 35.2402 5.84422 35.5241 8.422C35.5241 8.4355 35.531 8.45575 35.5379 8.46925C35.5102 8.47599 35.4825 8.49624 35.4618 8.50973C35.3371 8.55022 35.2817 8.6582 35.2887 8.77292C34.1808 10.5477 33.343 12.5249 32.4359 14.4009C32.3736 14.5291 32.3874 14.6843 32.4497 14.8192C32.3805 14.9205 32.3944 15.0824 32.5467 15.1094C33.3568 15.2781 34.2362 15.494 35.0671 15.5075C35.3994 15.5143 35.4756 15.0082 35.1433 14.9407C34.6032 14.8192 34.0077 14.7855 33.433 14.7652C34.0769 14.3131 34.7486 13.915 35.4202 13.5101C35.2402 16.6007 35.3233 19.8128 35.531 22.8833C35.531 22.8833 35.531 22.8968 35.531 22.9035C35.2264 23.0925 35.5102 23.5108 35.8357 23.3759C46.4505 18.9221 56.8506 14.0567 67.5901 9.86611C68.2686 9.60294 68.0332 8.59071 67.4031 8.67844ZM35.898 12.2819C35.2194 12.5249 34.5824 12.8758 33.9661 13.2739C34.6239 11.8973 35.2748 10.4937 35.7595 9.06309C42.9053 9.67717 50.2034 9.89985 57.4461 9.69066C50.3488 10.3047 43.2169 11.1753 36.2858 12.3764C36.1957 12.2752 36.0642 12.228 35.8911 12.2887L35.898 12.2819ZM36.1057 22.5864C36.3134 19.4485 36.3896 16.1824 36.1819 13.0512C45.1695 12.3494 54.2264 11.3642 63.2001 10.2913C53.9771 13.9352 44.761 17.8357 36.1126 22.5864H36.1057ZM36.1126 8.50298C36.445 6.15463 35.8772 3.69831 34.9425 1.50517C44.4909 3.46213 53.8178 6.21537 63.2763 8.449C54.2125 8.61771 45.1903 8.67168 36.1126 8.50298Z" fill="#EFC71D"/>
<path d="M42.1855 18.3214C40.8214 18.7802 39.4851 19.4618 38.1833 20.0624C37.9618 20.1636 38.121 20.5415 38.3495 20.4538C39.6997 19.9544 41.1261 19.4888 42.414 18.841C42.7048 18.6925 42.504 18.2134 42.1855 18.3214Z" fill="#EFC71D"/>
<path d="M41.4374 17.343C41.1604 17.4982 40.8834 17.6669 40.6134 17.8289C40.6134 17.8289 40.6134 17.8289 40.6064 17.8289C40.2256 18.0448 39.8379 18.254 39.4501 18.4564C39.2355 18.5711 39.3809 18.9423 39.6232 18.8546C40.011 18.7061 40.3918 18.5307 40.7726 18.3417C40.8142 18.3417 40.8557 18.3282 40.9042 18.308C41.1812 18.1528 41.4581 17.9976 41.7351 17.8356C42.0605 17.6534 41.7628 17.1608 41.4443 17.343H41.4374Z" fill="#EFC71D"/>
<path d="M45.7999 4.40671C45.2598 4.13004 44.6366 4.02882 44.0481 3.88036C43.3903 3.71166 42.7256 3.5092 42.0539 3.38774C41.8462 3.354 41.7769 3.61718 41.9708 3.69141C42.6078 3.94109 43.2726 4.11653 43.9304 4.31223C44.512 4.48768 45.0936 4.73061 45.703 4.77785C45.9038 4.79135 45.9799 4.49444 45.8068 4.40671H45.7999Z" fill="#EFC71D"/>
<path d="M46.0283 5.27056C44.8997 4.85218 43.6741 4.54851 42.5039 4.25834C42.2823 4.20436 42.2062 4.50801 42.4139 4.58899C43.5425 5.02087 44.7196 5.46625 45.8898 5.76992C46.2222 5.85764 46.3399 5.39201 46.0283 5.27729V5.27056Z" fill="#EFC71D"/>
<path d="M29.0293 13.7797C22.2852 12.3626 14.1077 16.3642 11.2549 22.5793C10.978 23.1866 10.7979 23.8412 10.7148 24.516C10.3548 24.5497 10.0086 24.597 9.70389 24.6577C3.99835 25.7779 -3.00894 33.9566 1.37408 39.3416C1.72722 39.7803 2.44041 39.2202 2.15652 38.7546C-0.114617 35.0093 2.41965 30.839 5.36936 28.2207C6.87191 26.8846 8.6445 25.9466 10.6594 25.6834C10.7564 29.6176 13.7892 33.4775 18.2345 31.0954C18.4215 30.9942 18.3869 30.731 18.2414 30.623C19.5432 29.8605 19.7648 28.2207 18.6915 26.7766C17.3967 25.0356 14.3985 24.4283 11.9058 24.4553C11.9404 24.3068 11.9681 24.1516 12.0097 24.0031C12.6882 21.7897 14.4331 19.9138 16.2127 18.4562C19.8132 15.5005 24.2655 14.1104 28.9324 14.5153C29.3686 14.5557 29.4586 13.8607 29.0363 13.773L29.0293 13.7797ZM14.5508 25.9196C16.6419 26.0816 17.4452 27.6134 16.9605 30.5151C16.7597 30.5893 16.732 30.7783 16.822 30.9065C13.8099 31.3114 11.7465 28.5041 11.7673 25.6294C12.7021 25.6294 13.6299 25.7307 14.5508 25.9264V25.9196Z" fill="#EFC71D"/>
</svg>
