<svg width="23" height="41" viewBox="0 0 23 41" fill="none" xmlns="http://www.w3.org/2000/svg">
<path d="M10.0488 4.27337C10.1931 4.19345 10.2988 4.03509 10.2395 3.83612C9.71186 2.10156 8.89414 0.182448 6.80448 0.0128971C5.17616 -0.115191 3.44835 0.725392 1.94208 1.5435C1.91544 1.5364 1.8858 1.53632 1.85316 1.54326C0.70262 1.76594 0.0567558 2.77323 0.00365556 3.8816C-0.0683405 5.34235 0.904815 6.66849 1.91633 7.64632C1.92052 7.65637 1.93279 7.65741 1.93998 7.66044C1.82171 7.78863 1.71063 7.91986 1.61182 8.05212C1.55433 8.12726 1.59414 8.22276 1.6591 8.27918C1.44945 9.06881 1.87148 10.0671 2.69775 10.3164C2.7654 10.3367 2.83367 10.3158 2.89055 10.2818C2.75483 11.3056 3.42593 12.4752 4.51117 12.6641C4.64529 12.6875 4.73511 12.5763 4.74829 12.4659C7.22769 19.2947 10.5247 26.0254 13.6107 32.6049C13.6963 32.7818 13.8463 32.8576 13.9966 32.863C14.0426 32.9736 14.1402 33.0231 14.2372 33.0143C15.7304 34.7215 17.3663 36.3025 18.984 37.8965C19.8791 38.7796 20.8636 40.1189 22.1719 40.3314C22.3111 40.3529 22.4464 40.294 22.5333 40.1898C23.2468 39.3022 22.7563 37.3017 22.5867 36.2981C22.2255 34.1533 21.5683 32.0369 20.8575 29.9765C20.9596 29.8663 20.9979 29.7168 20.903 29.5318C19.1768 26.2144 17.532 22.8652 16.054 19.433C14.6871 16.2673 13.6405 12.9468 12.2124 9.80499C12.2358 9.78999 12.2591 9.775 12.2783 9.74995C13.0739 8.78927 12.6878 7.60736 11.8373 6.88805C12.1754 5.56861 11.2516 4.57396 10.0517 4.26634L10.0488 4.27337ZM1.37706 2.46066C2.71983 1.94633 4.02819 1.26421 5.41646 0.901627C7.85558 0.261858 8.93797 2.0773 9.55539 4.09827C9.57006 4.13345 9.58053 4.15859 9.60328 4.18476C9.40989 4.16112 9.21469 4.16157 9.0135 4.17607C6.74447 4.35745 3.98076 5.63892 2.27772 7.30594L2.27352 7.29589C1.45036 5.94607 -0.0951226 3.71565 1.37706 2.46066ZM2.93189 10.0259C2.93189 10.0259 2.90914 9.9997 2.89058 9.98358C2.16313 9.50258 2.03927 8.67987 2.48602 7.99032C2.5474 7.8961 2.54322 7.78665 2.50042 7.69817C3.52827 6.86867 4.68005 6.26543 5.93301 5.7629C7.26232 5.23046 11.9741 3.56588 11.3927 6.58858C11.1748 6.46346 10.9398 6.36841 10.6919 6.31349C7.95774 5.67723 4.8278 7.72781 3.07415 9.5433C3.03373 9.58837 3.03731 9.63959 3.06126 9.68283C3.00107 9.79411 2.96543 9.90748 2.93189 10.0259ZM5.11961 11.6948C5.09865 11.6445 5.06153 11.6123 5.02651 11.5851C5.58281 11.1157 6.15915 10.7087 6.76184 10.379C8.75597 13.913 9.66928 17.8938 11.1913 21.6303C12.4983 24.8371 14.0629 27.9371 15.9314 30.8713C15.6661 30.8174 15.3943 30.8186 15.1242 30.8952C14.7054 31.0125 14.37 31.3017 14.1652 31.6626C11.3583 24.9855 8.56126 18.0765 5.1217 11.6998L5.11961 11.6948ZM7.42889 10.0476C8.05972 9.77121 8.71688 9.57224 9.41085 9.4758C12.4798 16.0854 14.337 23.4385 18.3364 29.5959C17.9828 29.5005 17.6038 29.5145 17.2622 29.6892C16.7691 29.9409 16.4924 30.4703 16.4804 30.9954C14.7602 27.664 13.0828 24.3216 11.6973 20.8415C10.2615 17.2408 9.36945 13.4388 7.43398 10.0456L7.42889 10.0476ZM22.0018 37.6791C22.0592 38.2998 22.0625 38.9183 22.0085 39.5417C21.7834 39.4136 21.5745 39.2674 21.3796 39.0981C20.644 38.6262 19.9654 37.9214 19.3206 37.2267C19.6905 36.2106 20.5297 35.5252 21.682 35.5766C21.6928 35.6309 21.7065 35.6781 21.7173 35.7324C21.8424 36.3733 21.9492 37.0273 22.0018 37.6791ZM20.209 30.2247C20.6758 31.8135 21.1876 33.3964 21.5566 35.006C20.4115 34.9575 19.236 35.7455 18.9734 36.8482C18.715 36.5694 18.4588 36.2955 18.2028 36.0508C16.9848 34.8615 15.7607 33.6863 14.4567 32.5892C14.4615 32.5581 14.4591 32.5239 14.4639 32.4928C14.4618 32.4878 14.4699 32.4788 14.4708 32.4667C14.6479 31.3858 16.0017 31.1537 16.6758 32.1175C16.879 32.4062 17.3883 32.1366 17.2276 31.8078C17.1869 31.7243 17.136 31.6448 17.08 31.5674C16.922 31.103 17.0125 30.5531 17.4675 30.2812C18.0577 29.9214 18.7294 30.3541 18.9641 30.917C19.0898 31.2186 19.614 31.1126 19.5401 30.7791C19.4844 30.5319 19.3677 30.3086 19.2013 30.1224C19.1779 30.038 19.1567 29.9586 19.1282 29.8762C19.2959 29.7813 19.4749 29.6995 19.6627 29.6669C19.7504 29.6501 19.8312 29.6593 19.915 29.6615C19.9495 29.7299 19.9911 29.8013 20.0255 29.8697C20.0713 29.9512 20.1312 30.0096 20.2021 30.052C20.1934 30.1021 20.194 30.1604 20.2069 30.2197L20.209 30.2247ZM19.6328 29.1406C19.3205 29.187 19.0142 29.3186 18.7768 29.4876C15.4837 22.9367 13.1947 16.0392 10.0949 9.41245C10.5015 9.39351 10.9236 9.39772 11.3595 9.44915C11.4035 9.4553 11.4413 9.44636 11.4739 9.43943C12.9031 16.206 16.3611 22.9964 19.6328 29.1406ZM11.9418 9.22687C11.9188 9.17158 11.8958 9.11629 11.8697 9.06803C11.855 9.03284 11.8272 9.00866 11.8065 8.98752C11.7886 8.83083 11.6829 8.69097 11.4773 8.66629C8.83496 8.32147 5.95093 9.22908 4.41998 11.4368C4.32326 11.5741 4.39869 11.755 4.52412 11.8287C4.52651 11.8628 4.52681 11.8919 4.54148 11.9271C4.58877 12.0548 4.63396 12.1774 4.68125 12.3051C4.66269 12.289 4.64623 12.2779 4.61749 12.2657C3.48497 11.8499 3.15369 10.5295 3.8178 9.60865C3.87829 9.52649 3.8732 9.42907 3.83968 9.34865C4.99208 8.50544 6.22621 7.75886 7.58784 7.28977C8.20399 7.07763 8.86414 6.87164 9.52488 6.8233C10.8086 6.73554 12.7608 7.65476 11.949 9.22991L11.9418 9.22687Z" fill="#ABE6AD"/>
</svg>
