<svg width="20" height="20" viewBox="0 0 20 20" fill="none" xmlns="http://www.w3.org/2000/svg">
<path d="M16.667 10.9833V9.16667C16.667 7.39856 15.9646 5.70286 14.7144 4.45262C13.4641 3.20238 11.7684 2.5 10.0003 2.5C8.23222 2.5 6.53652 3.20238 5.28628 4.45262C4.03604 5.70286 3.33366 7.39856 3.33366 9.16667V10.9833C2.84737 11.1553 2.42616 11.4734 2.12777 11.8941C1.82939 12.3148 1.66844 12.8175 1.66699 13.3333V15C1.66699 15.663 1.93038 16.2989 2.39923 16.7678C2.86807 17.2366 3.50395 17.5 4.16699 17.5H6.66699C6.88801 17.5 7.09997 17.4122 7.25625 17.2559C7.41253 17.0996 7.50033 16.8877 7.50033 16.6667V11.6667C7.50033 11.4457 7.41253 11.2337 7.25625 11.0774C7.09997 10.9211 6.88801 10.8333 6.66699 10.8333H5.00033V9.16667C5.00033 7.84058 5.52711 6.56881 6.46479 5.63113C7.40247 4.69345 8.67424 4.16667 10.0003 4.16667C11.3264 4.16667 12.5982 4.69345 13.5359 5.63113C14.4735 6.56881 15.0003 7.84058 15.0003 9.16667V10.8333H13.3337C13.1126 10.8333 12.9007 10.9211 12.7444 11.0774C12.5881 11.2337 12.5003 11.4457 12.5003 11.6667V16.6667C12.5003 16.8877 12.5881 17.0996 12.7444 17.2559C12.9007 17.4122 13.1126 17.5 13.3337 17.5H15.8337C16.4967 17.5 17.1326 17.2366 17.6014 16.7678C18.0703 16.2989 18.3337 15.663 18.3337 15V13.3333C18.3322 12.8175 18.1713 12.3148 17.8729 11.8941C17.5745 11.4734 17.1533 11.1553 16.667 10.9833ZM5.83366 12.5V15.8333H4.16699C3.94598 15.8333 3.73402 15.7455 3.57774 15.5893C3.42146 15.433 3.33366 15.221 3.33366 15V13.3333C3.33366 13.1123 3.42146 12.9004 3.57774 12.7441C3.73402 12.5878 3.94598 12.5 4.16699 12.5H5.83366ZM16.667 15C16.667 15.221 16.5792 15.433 16.4229 15.5893C16.2666 15.7455 16.0547 15.8333 15.8337 15.8333H14.167V12.5H15.8337C16.0547 12.5 16.2666 12.5878 16.4229 12.7441C16.5792 12.9004 16.667 13.1123 16.667 13.3333V15Z" fill="#045CCE"/>
</svg>
