<svg width="20" height="20" viewBox="0 0 20 20" fill="none" xmlns="http://www.w3.org/2000/svg">
<path d="M9.5333 1.66675C7.39696 1.67284 5.34454 2.49918 3.79997 3.97508V2.50008C3.79997 2.27907 3.71217 2.06711 3.55589 1.91083C3.39961 1.75455 3.18765 1.66675 2.96663 1.66675C2.74562 1.66675 2.53366 1.75455 2.37738 1.91083C2.2211 2.06711 2.1333 2.27907 2.1333 2.50008V6.25008C2.1333 6.4711 2.2211 6.68306 2.37738 6.83934C2.53366 6.99562 2.74562 7.08341 2.96663 7.08341H6.71663C6.93765 7.08341 7.14961 6.99562 7.30589 6.83934C7.46217 6.68306 7.54997 6.4711 7.54997 6.25008C7.54997 6.02907 7.46217 5.81711 7.30589 5.66083C7.14961 5.50455 6.93765 5.41675 6.71663 5.41675H4.71663C5.47639 4.61426 6.42372 4.01322 7.47341 3.6677C8.52309 3.32218 9.64221 3.24302 10.7301 3.43733C11.818 3.63165 12.8405 4.09335 13.7056 4.78091C14.5708 5.46846 15.2514 6.3603 15.6864 7.37619C16.1213 8.39208 16.2969 9.50017 16.1974 10.6008C16.0978 11.7014 15.7262 12.7599 15.116 13.6813C14.5058 14.6026 13.6761 15.3578 12.7016 15.879C11.7271 16.4001 10.6384 16.6708 9.5333 16.6667C9.31229 16.6667 9.10033 16.7545 8.94405 16.9108C8.78777 17.0671 8.69997 17.2791 8.69997 17.5001C8.69997 17.7211 8.78777 17.9331 8.94405 18.0893C9.10033 18.2456 9.31229 18.3334 9.5333 18.3334C11.7434 18.3334 13.8631 17.4554 15.4259 15.8926C16.9887 14.3298 17.8666 12.2102 17.8666 10.0001C17.8666 7.78994 16.9887 5.67033 15.4259 4.10752C13.8631 2.54472 11.7434 1.66675 9.5333 1.66675ZM9.5333 6.66675C9.31229 6.66675 9.10033 6.75455 8.94405 6.91083C8.78777 7.06711 8.69997 7.27907 8.69997 7.50008V10.0001C8.69997 10.2211 8.78777 10.4331 8.94405 10.5893C9.10033 10.7456 9.31229 10.8334 9.5333 10.8334H11.2C11.421 10.8334 11.6329 10.7456 11.7892 10.5893C11.9455 10.4331 12.0333 10.2211 12.0333 10.0001C12.0333 9.77907 11.9455 9.56711 11.7892 9.41083C11.6329 9.25455 11.421 9.16675 11.2 9.16675H10.3666V7.50008C10.3666 7.27907 10.2788 7.06711 10.1226 6.91083C9.96628 6.75455 9.75431 6.66675 9.5333 6.66675Z" fill="#045CCE"/>
</svg>
