<svg width="19" height="12" viewBox="0 0 19 12" fill="none" xmlns="http://www.w3.org/2000/svg">
<path d="M4.16667 5C4.00185 5 3.84073 5.04887 3.70369 5.14044C3.56665 5.23201 3.45984 5.36216 3.39677 5.51443C3.33369 5.6667 3.31719 5.83426 3.34935 5.99591C3.3815 6.15756 3.46087 6.30605 3.57741 6.42259C3.69396 6.53913 3.84244 6.6185 4.00409 6.65065C4.16574 6.68281 4.3333 6.66631 4.48557 6.60323C4.63784 6.54016 4.76799 6.43335 4.85956 6.29631C4.95113 6.15927 5 5.99815 5 5.83333C5 5.61232 4.9122 5.40036 4.75592 5.24408C4.59964 5.0878 4.38768 5 4.16667 5ZM14.1667 5C14.0018 5 13.8407 5.04887 13.7037 5.14044C13.5667 5.23201 13.4598 5.36216 13.3968 5.51443C13.3337 5.6667 13.3172 5.83426 13.3493 5.99591C13.3815 6.15756 13.4609 6.30605 13.5774 6.42259C13.694 6.53913 13.8424 6.6185 14.0041 6.65065C14.1657 6.68281 14.3333 6.66631 14.4856 6.60323C14.6378 6.54016 14.768 6.43335 14.8596 6.29631C14.9511 6.15927 15 5.99815 15 5.83333C15 5.61232 14.9122 5.40036 14.7559 5.24408C14.5996 5.0878 14.3877 5 14.1667 5ZM15.8333 0H2.5C1.83696 0 1.20107 0.263392 0.732233 0.732233C0.263392 1.20107 0 1.83696 0 2.5V9.16667C0 9.82971 0.263392 10.4656 0.732233 10.9344C1.20107 11.4033 1.83696 11.6667 2.5 11.6667H15.8333C16.4964 11.6667 17.1323 11.4033 17.6011 10.9344C18.0699 10.4656 18.3333 9.82971 18.3333 9.16667V2.5C18.3333 1.83696 18.0699 1.20107 17.6011 0.732233C17.1323 0.263392 16.4964 0 15.8333 0ZM16.6667 9.16667C16.6667 9.38768 16.5789 9.59964 16.4226 9.75592C16.2663 9.9122 16.0543 10 15.8333 10H2.5C2.27899 10 2.06702 9.9122 1.91074 9.75592C1.75446 9.59964 1.66667 9.38768 1.66667 9.16667V2.5C1.66667 2.27899 1.75446 2.06702 1.91074 1.91074C2.06702 1.75446 2.27899 1.66667 2.5 1.66667H15.8333C16.0543 1.66667 16.2663 1.75446 16.4226 1.91074C16.5789 2.06702 16.6667 2.27899 16.6667 2.5V9.16667ZM9.16667 3.33333C8.67221 3.33333 8.18886 3.47996 7.77774 3.75466C7.36662 4.02936 7.04619 4.41981 6.85697 4.87663C6.66775 5.33344 6.61824 5.83611 6.7147 6.32106C6.81117 6.80601 7.04927 7.25147 7.3989 7.6011C7.74853 7.95073 8.19399 8.18883 8.67894 8.2853C9.16389 8.38176 9.66656 8.33225 10.1234 8.14303C10.5802 7.95381 10.9706 7.63338 11.2453 7.22226C11.52 6.81114 11.6667 6.32779 11.6667 5.83333C11.6667 5.17029 11.4033 4.53441 10.9344 4.06557C10.4656 3.59673 9.82971 3.33333 9.16667 3.33333ZM9.16667 6.66667C9.00185 6.66667 8.84073 6.61779 8.70369 6.52623C8.56665 6.43466 8.45984 6.30451 8.39677 6.15224C8.33369 5.99997 8.31719 5.83241 8.34935 5.67076C8.3815 5.50911 8.46087 5.36062 8.57741 5.24408C8.69396 5.12753 8.84244 5.04817 9.00409 5.01601C9.16574 4.98386 9.3333 5.00036 9.48557 5.06343C9.63784 5.12651 9.76799 5.23332 9.85956 5.37036C9.95113 5.5074 10 5.66852 10 5.83333C10 6.05435 9.9122 6.26631 9.75592 6.42259C9.59964 6.57887 9.38768 6.66667 9.16667 6.66667Z" fill="#045CCE"/>
</svg>
