<svg width="15" height="19" viewBox="0 0 15 19" fill="none" xmlns="http://www.w3.org/2000/svg">
<path d="M4.5565 6.16225L4.55463 6.16377L4.55284 6.16551L4.5565 6.16225ZM12.8516 6.00681C12.7936 5.95093 12.7293 5.90204 12.6599 5.86113C12.5617 5.80335 12.4528 5.76632 12.3397 5.75233C12.2266 5.73834 12.1119 5.74769 12.0026 5.77981C11.8933 5.81192 11.7918 5.86611 11.7042 5.93903C11.6167 6.01195 11.5451 6.10204 11.4938 6.20375C11.2067 6.76932 10.8108 7.27265 10.3288 7.68486C10.4025 7.26953 10.4396 6.84854 10.4398 6.42672C10.4414 5.14347 10.1029 3.88273 9.45872 2.77286C8.81458 1.66299 7.88783 0.743628 6.77284 0.108389C6.65002 0.0387614 6.51151 0.00148014 6.37033 4.31741e-05C6.22915 -0.00139379 6.08992 0.0330606 5.9657 0.100173C5.84148 0.167286 5.73635 0.264857 5.66016 0.383731C5.58398 0.502605 5.53925 0.638884 5.53017 0.77978C5.48353 1.56993 5.27697 2.34238 4.92299 3.05034C4.56902 3.75829 4.07499 4.38702 3.47086 4.89841L3.2788 5.05466C2.64706 5.47974 2.08788 6.00375 1.62272 6.60658C0.899647 7.5175 0.398755 8.58436 0.159765 9.72256C-0.0792257 10.8608 -0.0497411 12.039 0.24588 13.1638C0.541502 14.2886 1.09513 15.3291 1.86286 16.2027C2.63059 17.0763 3.5913 17.7591 4.66881 18.1968C4.79532 18.2485 4.93262 18.2682 5.06858 18.2543C5.20454 18.2404 5.33499 18.1933 5.44842 18.117C5.56185 18.0408 5.65478 17.9378 5.719 17.8172C5.78323 17.6965 5.81678 17.5619 5.81669 17.4253C5.8161 17.3369 5.8021 17.2491 5.77519 17.1649C5.58875 16.464 5.53507 15.7345 5.6169 15.014C6.40543 16.5012 7.67118 17.6801 9.21065 18.3611C9.39856 18.4452 9.61099 18.4565 9.80677 18.3929C11.0231 18.0003 12.1188 17.3032 12.9898 16.3679C13.8608 15.4326 14.4782 14.2901 14.7833 13.049C15.0884 11.8078 15.0711 10.5093 14.733 9.27674C14.3949 8.04419 13.7473 6.91856 12.8516 6.00681ZM9.5976 16.6994C8.8712 16.3312 8.23041 15.8143 7.7169 15.1822C7.20338 14.5502 6.82865 13.8171 6.61705 13.0307C6.55243 12.766 6.50244 12.4978 6.46731 12.2275C6.44351 12.0554 6.36651 11.895 6.24708 11.7688C6.12765 11.6426 5.97177 11.5568 5.80122 11.5236C5.74868 11.5132 5.69525 11.508 5.64169 11.5081C5.49523 11.5081 5.35134 11.5466 5.22453 11.6199C5.09773 11.6932 4.9925 11.7987 4.91944 11.9256C4.228 13.1182 3.88027 14.479 3.9148 15.8571C3.30667 15.3843 2.79843 14.7954 2.41953 14.1247C2.04064 13.4541 1.79863 12.7148 1.70753 11.9499C1.61643 11.185 1.67805 10.4096 1.88882 9.6687C2.09959 8.92777 2.45532 8.23605 2.93539 7.63362C3.2999 7.16015 3.73963 6.7497 4.23706 6.41862C4.2586 6.40472 4.27925 6.3895 4.29891 6.37305C4.29891 6.37305 4.54615 6.16848 4.5546 6.1638C5.74185 5.1596 6.58627 3.81006 6.97022 2.30322C7.87819 3.14258 8.48363 4.25825 8.69251 5.47698C8.9014 6.69571 8.70205 7.94932 8.12541 9.04313C8.04922 9.18909 8.01797 9.35434 8.03559 9.51804C8.05322 9.68174 8.11893 9.83655 8.22443 9.96295C8.32993 10.0894 8.47051 10.1817 8.62842 10.2283C8.78633 10.2749 8.95451 10.2737 9.11173 10.2248C10.3882 9.82466 11.5115 9.04306 12.3303 7.98521C12.8225 8.71213 13.1442 9.54072 13.2716 10.4093C13.399 11.2778 13.3287 12.1639 13.066 13.0015C12.8033 13.8391 12.355 14.6066 11.7545 15.2469C11.154 15.8872 10.4167 16.3837 9.59758 16.6994L9.5976 16.6994Z" fill="#9A4040"/>
</svg>
