<svg width="20" height="20" viewBox="0 0 20 20" fill="none" xmlns="http://www.w3.org/2000/svg">
<path d="M18.3332 9.11634C18.3245 9.03979 18.3077 8.96437 18.2832 8.89134V8.81634C18.2431 8.73066 18.1897 8.6519 18.1248 8.58301L13.1248 3.58301C13.0559 3.51819 12.9772 3.46474 12.8915 3.42467H12.8082C12.7271 3.38134 12.6401 3.35044 12.5498 3.33301H4.1665C3.50346 3.33301 2.86758 3.5964 2.39874 4.06524C1.9299 4.53408 1.6665 5.16997 1.6665 5.83301V14.1663C1.6665 14.8294 1.9299 15.4653 2.39874 15.9341C2.86758 16.4029 3.50346 16.6663 4.1665 16.6663H15.8332C16.4962 16.6663 17.1321 16.4029 17.6009 15.9341C18.0698 15.4653 18.3332 14.8294 18.3332 14.1663V9.16634C18.3332 9.16634 18.3332 9.16634 18.3332 9.11634ZM13.3332 6.17467L15.4915 8.33301H14.1665C13.9455 8.33301 13.7335 8.24521 13.5772 8.08893C13.421 7.93265 13.3332 7.72069 13.3332 7.49967V6.17467ZM16.6665 14.1663C16.6665 14.3874 16.5787 14.5993 16.4224 14.7556C16.2661 14.9119 16.0542 14.9997 15.8332 14.9997H4.1665C3.94549 14.9997 3.73353 14.9119 3.57725 14.7556C3.42097 14.5993 3.33317 14.3874 3.33317 14.1663V5.83301C3.33317 5.61199 3.42097 5.40003 3.57725 5.24375C3.73353 5.08747 3.94549 4.99967 4.1665 4.99967H11.6665V7.49967C11.6665 8.16272 11.9299 8.7986 12.3987 9.26744C12.8676 9.73628 13.5035 9.99967 14.1665 9.99967H16.6665V14.1663ZM5.83317 9.99967H9.1665C9.38752 9.99967 9.59948 9.91188 9.75576 9.7556C9.91204 9.59932 9.99984 9.38735 9.99984 9.16634C9.99984 8.94533 9.91204 8.73337 9.75576 8.57709C9.59948 8.42081 9.38752 8.33301 9.1665 8.33301H5.83317C5.61216 8.33301 5.4002 8.42081 5.24392 8.57709C5.08763 8.73337 4.99984 8.94533 4.99984 9.16634C4.99984 9.38735 5.08763 9.59932 5.24392 9.7556C5.4002 9.91188 5.61216 9.99967 5.83317 9.99967ZM5.83317 11.6663C5.61216 11.6663 5.4002 11.7541 5.24392 11.9104C5.08763 12.0667 4.99984 12.2787 4.99984 12.4997C4.99984 12.7207 5.08763 12.9326 5.24392 13.0889C5.4002 13.2452 5.61216 13.333 5.83317 13.333H14.1665C14.3875 13.333 14.5995 13.2452 14.7558 13.0889C14.912 12.9326 14.9998 12.7207 14.9998 12.4997C14.9998 12.2787 14.912 12.0667 14.7558 11.9104C14.5995 11.7541 14.3875 11.6663 14.1665 11.6663H5.83317Z" fill="#3B2280"/>
</svg>
