<svg width="19" height="19" viewBox="0 0 19 19" fill="none" xmlns="http://www.w3.org/2000/svg">
<path d="M2.41667 11.5825V14.9159M9.08333 6.58252V14.9159M17.4167 17.4159H0.75M15.75 9.91585V14.9159" stroke="#454545" stroke-width="1.5" stroke-linecap="round" stroke-linejoin="round"/>
<path d="M3.75001 6.41571C3.61868 6.24062 3.45416 6.0931 3.26583 5.98159C3.0775 5.87008 2.86905 5.79675 2.65238 5.7658C2.43571 5.73484 2.21506 5.74687 2.00304 5.80119C1.79102 5.85551 1.59177 5.95106 1.41667 6.08238C1.24158 6.2137 1.09406 6.37822 0.982549 6.56656C0.871037 6.75489 0.797711 6.96334 0.766758 7.18001C0.704246 7.61759 0.818124 8.06209 1.08334 8.41571C1.34856 8.76933 1.74339 9.00312 2.18097 9.06563C2.61856 9.12814 3.06305 9.01426 3.41667 8.74905C3.7703 8.48383 4.00408 8.089 4.06659 7.65141C4.1291 7.21383 4.01522 6.76933 3.75001 6.41571ZM3.75001 6.41571L7.75001 3.41571M7.75001 3.41571C7.92039 3.64323 8.14613 3.82339 8.40576 3.93907C8.6654 4.05474 8.95031 4.1021 9.2334 4.07663C9.5165 4.05116 9.78838 3.95371 10.0232 3.79354C10.258 3.63338 10.448 3.41582 10.575 3.16155M7.75001 3.41571C7.57214 3.17821 7.46091 2.89752 7.4278 2.60265C7.39469 2.30778 7.4409 2.00941 7.56166 1.73837C7.68242 1.46733 7.87335 1.23345 8.11473 1.06087C8.3561 0.888299 8.63918 0.783295 8.93471 0.756706C9.23024 0.730116 9.52751 0.782907 9.79582 0.909625C10.0641 1.03634 10.2937 1.23239 10.4609 1.47752C10.6281 1.72266 10.7269 2.00798 10.7469 2.30403C10.767 2.60007 10.7076 2.8961 10.575 3.16155M10.575 3.16155L14.2583 5.00321M14.2583 5.00321C14.1604 5.19899 14.102 5.41214 14.0864 5.6305C14.0708 5.84886 14.0984 6.06815 14.1676 6.27584C14.3073 6.6953 14.6079 7.04207 15.0033 7.23988C15.3987 7.43769 15.8565 7.47032 16.276 7.33061C16.6954 7.19089 17.0422 6.89027 17.24 6.49488C17.4337 6.10007 17.4636 5.6447 17.323 5.22799C17.1825 4.81127 16.8829 4.467 16.4896 4.27019C16.0964 4.07339 15.6412 4.04 15.2234 4.1773C14.8056 4.31461 14.459 4.61147 14.2592 5.00321H14.2583Z" stroke="#454545" stroke-width="1.5"/>
</svg>
