<svg width="10" height="10" viewBox="0 0 10 10" fill="none" xmlns="http://www.w3.org/2000/svg">
<path d="M9.93333 4.68674C9.89367 4.58445 9.8342 4.491 9.75833 4.41174L5.59167 0.245076C5.51397 0.167378 5.42173 0.105744 5.32021 0.0636935C5.21869 0.0216433 5.10988 0 5 0C4.77808 0 4.56525 0.0881567 4.40833 0.245076C4.33063 0.322775 4.269 0.415017 4.22695 0.516535C4.1849 0.618054 4.16326 0.72686 4.16326 0.836743C4.16326 1.05866 4.25141 1.27149 4.40833 1.42841L7.15833 4.17008H0.833333C0.61232 4.17008 0.400358 4.25787 0.244078 4.41415C0.0877975 4.57044 0 4.7824 0 5.00341C0 5.22442 0.0877975 5.43639 0.244078 5.59267C0.400358 5.74895 0.61232 5.83674 0.833333 5.83674H7.15833L4.40833 8.57841C4.33023 8.65588 4.26823 8.74805 4.22592 8.8496C4.18362 8.95115 4.16183 9.06007 4.16183 9.17008C4.16183 9.28009 4.18362 9.38901 4.22592 9.49056C4.26823 9.59211 4.33023 9.68427 4.40833 9.76174C4.4858 9.83985 4.57797 9.90185 4.67952 9.94415C4.78107 9.98646 4.88999 10.0082 5 10.0082C5.11001 10.0082 5.21893 9.98646 5.32048 9.94415C5.42203 9.90185 5.5142 9.83985 5.59167 9.76174L9.75833 5.59508C9.8342 5.51582 9.89367 5.42237 9.93333 5.32008C10.0167 5.11719 10.0167 4.88963 9.93333 4.68674Z" fill="#045CCE"/>
</svg>
