<svg width="14" height="14" viewBox="0 0 14 14" fill="none" xmlns="http://www.w3.org/2000/svg">
<path d="M7.8465 6.67008L13.0965 1.42841C13.2534 1.27149 13.3416 1.05866 13.3416 0.836743C13.3416 0.614825 13.2534 0.401996 13.0965 0.245076C12.9396 0.0881567 12.7268 0 12.5048 0C12.2829 0 12.0701 0.0881567 11.9132 0.245076L6.6715 5.49508L1.42983 0.245076C1.27291 0.0881567 1.06008 1.97029e-07 0.838165 1.98682e-07C0.616247 2.00336e-07 0.403418 0.0881567 0.246499 0.245076C0.0895788 0.401996 0.00142237 0.614825 0.00142237 0.836743C0.00142236 1.05866 0.0895788 1.27149 0.246499 1.42841L5.4965 6.67008L0.246499 11.9117C0.168392 11.9892 0.106397 12.0814 0.0640893 12.1829C0.0217821 12.2845 0 12.3934 0 12.5034C0 12.6134 0.0217821 12.7223 0.0640893 12.8239C0.106397 12.9254 0.168392 13.0176 0.246499 13.0951C0.323968 13.1732 0.416135 13.2352 0.517685 13.2775C0.619234 13.3198 0.728155 13.3416 0.838165 13.3416C0.948175 13.3416 1.0571 13.3198 1.15865 13.2775C1.2602 13.2352 1.35236 13.1732 1.42983 13.0951L6.6715 7.84508L11.9132 13.0951C11.9906 13.1732 12.0828 13.2352 12.1844 13.2775C12.2859 13.3198 12.3948 13.3416 12.5048 13.3416C12.6148 13.3416 12.7238 13.3198 12.8253 13.2775C12.9269 13.2352 13.019 13.1732 13.0965 13.0951C13.1746 13.0176 13.2366 12.9254 13.2789 12.8239C13.3212 12.7223 13.343 12.6134 13.343 12.5034C13.343 12.3934 13.3212 12.2845 13.2789 12.1829C13.2366 12.0814 13.1746 11.9892 13.0965 11.9117L7.8465 6.67008Z" fill="#4F4F4F"/>
</svg>
