<svg width="20" height="21" viewBox="0 0 20 21" fill="none" xmlns="http://www.w3.org/2000/svg">
<path d="M4.27067 4.66666C3.58 4.66666 2.91762 4.94102 2.42925 5.4294C1.94087 5.91778 1.6665 6.58016 1.6665 7.27082V13.7292C1.6665 14.4198 1.94087 15.0822 2.42925 15.5706C2.91762 16.059 3.58 16.3333 4.27067 16.3333H15.729C16.4197 16.3333 17.0821 16.059 17.5704 15.5706C18.0588 15.0822 18.3332 14.4198 18.3332 13.7292V7.27082C18.3332 6.58016 18.0588 5.91778 17.5704 5.4294C17.0821 4.94102 16.4197 4.66666 15.729 4.66666H4.27067ZM2.70817 7.27082C2.70817 6.85642 2.87279 6.45899 3.16582 6.16597C3.45884 5.87294 3.85627 5.70832 4.27067 5.70832H15.729C16.1434 5.70832 16.5408 5.87294 16.8339 6.16597C17.1269 6.45899 17.2915 6.85642 17.2915 7.27082V13.7292C17.2915 14.1436 17.1269 14.541 16.8339 14.834C16.5408 15.127 16.1434 15.2917 15.729 15.2917H4.27067C3.85627 15.2917 3.45884 15.127 3.16582 14.834C2.87279 14.541 2.70817 14.1436 2.70817 13.7292V7.27082ZM5.05567 8.98582C4.95798 8.88813 4.82549 8.83325 4.68734 8.83325C4.54919 8.83325 4.41669 8.88813 4.319 8.98582C4.22132 9.08351 4.16644 9.216 4.16644 9.35416C4.16644 9.49231 4.22132 9.6248 4.319 9.72249L5.0965 10.5L4.319 11.2775C4.22132 11.3752 4.16644 11.5077 4.16644 11.6458C4.16644 11.784 4.22132 11.9165 4.319 12.0142C4.41669 12.1118 4.54919 12.1667 4.68734 12.1667C4.82549 12.1667 4.95798 12.1118 5.05567 12.0142L5.83317 11.2367L6.61067 12.0142C6.70836 12.1118 6.84085 12.1667 6.979 12.1667C7.11716 12.1667 7.24965 12.1118 7.34734 12.0142C7.44503 11.9165 7.49991 11.784 7.49991 11.6458C7.49991 11.5077 7.44503 11.3752 7.34734 11.2775L6.56984 10.5L7.34734 9.72249C7.44503 9.6248 7.49991 9.49231 7.49991 9.35416C7.49991 9.216 7.44503 9.08351 7.34734 8.98582C7.24965 8.88813 7.11716 8.83325 6.979 8.83325C6.84085 8.83325 6.70836 8.88813 6.61067 8.98582L5.83317 9.76332L5.05567 8.98582ZM8.90234 8.98582C8.9507 8.93744 9.00813 8.89907 9.07132 8.87289C9.13452 8.8467 9.20226 8.83323 9.27067 8.83323C9.33908 8.83323 9.40682 8.8467 9.47002 8.87289C9.53322 8.89907 9.59064 8.93744 9.639 8.98582L10.4165 9.76332L11.194 8.98582C11.2917 8.88813 11.4242 8.83325 11.5623 8.83325C11.7005 8.83325 11.833 8.88813 11.9307 8.98582C12.0284 9.08351 12.0832 9.216 12.0832 9.35416C12.0832 9.49231 12.0284 9.6248 11.9307 9.72249L11.1532 10.5L11.9307 11.2775C12.0284 11.3752 12.0832 11.5077 12.0832 11.6458C12.0832 11.784 12.0284 11.9165 11.9307 12.0142C11.833 12.1118 11.7005 12.1667 11.5623 12.1667C11.4242 12.1667 11.2917 12.1118 11.194 12.0142L10.4165 11.2367L9.639 12.0142C9.54132 12.1118 9.40882 12.1667 9.27067 12.1667C9.13252 12.1667 9.00002 12.1118 8.90234 12.0142C8.80465 11.9165 8.74977 11.784 8.74977 11.6458C8.74977 11.5077 8.80465 11.3752 8.90234 11.2775L9.67984 10.5L8.90234 9.72249C8.85396 9.67412 8.81558 9.6167 8.7894 9.5535C8.76322 9.4903 8.74974 9.42256 8.74974 9.35416C8.74974 9.28575 8.76322 9.21801 8.7894 9.15481C8.81558 9.09161 8.85396 9.03419 8.90234 8.98582ZM13.854 11.125C13.7159 11.125 13.5834 11.1799 13.4857 11.2775C13.388 11.3752 13.3332 11.5077 13.3332 11.6458C13.3332 11.784 13.388 11.9164 13.4857 12.0141C13.5834 12.1118 13.7159 12.1667 13.854 12.1667H15.729C15.8671 12.1667 15.9996 12.1118 16.0973 12.0141C16.195 11.9164 16.2498 11.784 16.2498 11.6458C16.2498 11.5077 16.195 11.3752 16.0973 11.2775C15.9996 11.1799 15.8671 11.125 15.729 11.125H13.854Z" fill="#6D6D6D"/>
</svg>
