<svg width="20" height="20" viewBox="0 0 20 20" fill="none" xmlns="http://www.w3.org/2000/svg">
<path d="M10.8337 9.1665H16.6253C16.4198 7.63873 15.7837 6.34428 14.717 5.28317C13.6559 4.22206 12.3614 3.58595 10.8337 3.37484M9.16699 16.6248V3.37484C7.50033 3.58595 6.11144 4.31928 5.00033 5.57484C3.88921 6.83039 3.33366 8.30539 3.33366 9.99984C3.33366 11.6943 3.88921 13.1693 5.00033 14.4248C6.11144 15.6859 7.50033 16.4193 9.16699 16.6248ZM10.8337 16.6248C12.3614 16.4304 13.6614 15.7998 14.7337 14.7332C15.8003 13.6609 16.4309 12.3609 16.6253 10.8332H10.8337M10.0003 18.3332C8.85033 18.3332 7.76699 18.1137 6.75033 17.6748C5.73921 17.2415 4.85866 16.6498 4.10866 15.8998C3.35866 15.1498 2.76421 14.2665 2.32533 13.2498C1.88644 12.2387 1.66699 11.1554 1.66699 9.99984C1.66699 8.84428 1.88644 7.76095 2.32533 6.74984C2.76421 5.73873 3.35866 4.85817 4.10866 4.10817C4.85866 3.35817 5.73921 2.76373 6.75033 2.32484C7.76699 1.88595 8.85033 1.6665 10.0003 1.6665C11.1503 1.6665 12.2309 1.88595 13.242 2.32484C14.2475 2.76373 15.1281 3.36095 15.8837 4.1165C16.6448 4.87206 17.242 5.75261 17.6753 6.75817C18.1142 7.76928 18.3337 8.84984 18.3337 9.99984C18.3337 11.1387 18.1142 12.2165 17.6753 13.2332C17.242 14.2443 16.6503 15.1276 15.9003 15.8832C15.1503 16.6443 14.267 17.2415 13.2503 17.6748C12.2392 18.1137 11.1559 18.3332 10.0003 18.3332Z" fill="#454545"/>
</svg>
