<svg width="20" height="20" viewBox="0 0 20 20" fill="none" xmlns="http://www.w3.org/2000/svg">
<path d="M4.9999 17.9162C4.45901 17.9161 3.92882 17.7655 3.46856 17.4814C3.0083 17.1973 2.63612 16.7908 2.3936 16.3073C2.15108 15.8238 2.04778 15.2825 2.09523 14.7436C2.14269 14.2048 2.33904 13.6899 2.66234 13.2562C2.98564 12.8226 3.42315 12.4874 3.92599 12.2881C4.42882 12.0888 4.97717 12.0333 5.50976 12.1277C6.04235 12.2221 6.53819 12.4627 6.94188 12.8227C7.34557 13.1827 7.6412 13.6479 7.79574 14.1662H12.4999V12.4996H14.1666V7.70122L12.2974 5.83289H7.4999V7.49956H2.4999V2.49956H7.4999V4.16622H12.2974L14.9999 1.46289L18.5357 4.99956L15.8332 7.70039V12.4996H17.4999V17.4996H12.4999V15.8329H7.79574C7.61624 16.4349 7.24715 16.9629 6.74339 17.3383C6.23964 17.7137 5.62814 17.9164 4.9999 17.9162ZM4.9999 13.7496C4.66838 13.7496 4.35044 13.8813 4.11602 14.1157C3.8816 14.3501 3.7499 14.668 3.7499 14.9996C3.7499 15.3311 3.8816 15.649 4.11602 15.8834C4.35044 16.1179 4.66838 16.2496 4.9999 16.2496C5.33142 16.2496 5.64937 16.1179 5.88379 15.8834C6.11821 15.649 6.2499 15.3311 6.2499 14.9996C6.2499 14.668 6.11821 14.3501 5.88379 14.1157C5.64937 13.8813 5.33142 13.7496 4.9999 13.7496ZM15.8332 14.1662H14.1666V15.8329H15.8332V14.1662ZM14.9999 3.82122L13.8216 4.99956L14.9999 6.17789L16.1782 4.99956L14.9999 3.82122ZM5.83324 4.16622H4.16657V5.83289H5.83324V4.16622Z" fill="#454545"/>
</svg>
