<svg width="52" height="50" viewBox="0 0 52 50" fill="none" xmlns="http://www.w3.org/2000/svg">
<g clip-path="url(#clip0_140_627)">
<path d="M39.6804 41.9043C41.5264 41.9043 43.0229 39.6657 43.0229 36.9043C43.0229 34.1429 41.5264 31.9043 39.6804 31.9043C37.8344 31.9043 36.3379 34.1429 36.3379 36.9043C36.3379 39.6657 37.8344 41.9043 39.6804 41.9043Z" fill="#FFB90B"/>
<path d="M35.8604 17.1422C35.6217 19.1422 35.2397 20.3803 34.7144 21.3803C34.2369 22.285 33.6639 22.9517 32.9954 23.8089L18.1928 22.8565C18.1928 22.8565 17.0946 21.7612 16.3783 19.0469C15.9486 17.4279 15.6621 15.2374 15.8053 12.3803C15.8053 11.4279 16.7603 10.9517 17.7153 11.4279C18.1928 10.7612 18.7658 10.1422 19.3866 9.57076C21.3444 7.95171 24.0184 7.09457 27.5041 7.61838C28.8889 7.85647 30.4169 8.28504 31.9927 8.99933C35.6694 10.8089 36.2902 13.7612 35.8604 17.1422Z" fill="#464045"/>
<path d="M35.8603 17.1422C35.6215 19.1422 35.2395 20.3803 34.7143 21.3803C32.2313 21.4279 30.1303 21.4279 30.1303 21.4279C32.088 14.2851 30.9898 10.2374 27.5518 7.66602C28.9365 7.90411 30.4645 8.33268 32.0403 9.04697C35.6693 10.8089 36.29 13.7613 35.8603 17.1422Z" fill="#282628"/>
<path d="M11.9851 41.9043C13.8311 41.9043 15.3276 39.6657 15.3276 36.9043C15.3276 34.1429 13.8311 31.9043 11.9851 31.9043C10.1391 31.9043 8.64258 34.1429 8.64258 36.9043C8.64258 39.6657 10.1391 41.9043 11.9851 41.9043Z" fill="#FFB90B"/>
<path d="M33.0906 23.3325C34.1889 24.2373 35.1439 21.9515 35.1439 20.9515C34.8096 17.9039 32.7563 20.6182 32.7563 20.6182L33.0906 23.3325Z" fill="#F7CF9F"/>
<path d="M18.5747 23.3325C17.4765 24.2373 16.5215 21.9515 16.5215 20.9515C16.8557 17.9039 18.909 20.6182 18.909 20.6182L18.5747 23.3325Z" fill="#F7CF9F"/>
<path d="M26.1667 29.9993H25.2594C21.4872 29.9993 18.4312 26.9517 18.4312 23.1898V16.9041C18.4312 16.7613 18.5267 16.666 18.6699 16.666H32.804C32.9472 16.666 33.0427 16.7613 33.0427 16.9041V23.2374C32.995 26.9517 29.939 29.9993 26.1667 29.9993Z" fill="#FCCAB1"/>
<g opacity="0.6">
<path d="M32.9951 16.9041V23.2374C32.9951 26.9993 29.9391 30.047 26.1668 30.047H25.2596C23.9703 30.047 22.7766 29.666 21.7261 29.047H22.3946H23.3018C27.0741 29.047 30.1301 25.9993 30.1301 22.2374V16.666H32.8041C32.8996 16.666 32.9951 16.7613 32.9951 16.9041Z" fill="#EA9E7D"/>
</g>
<path d="M22.7289 23.3325C23.1245 23.3325 23.4452 22.9061 23.4452 22.3801C23.4452 21.8541 23.1245 21.4277 22.7289 21.4277C22.3334 21.4277 22.0127 21.8541 22.0127 22.3801C22.0127 22.9061 22.3334 23.3325 22.7289 23.3325Z" fill="#464045"/>
<path d="M23.9226 20.9519C23.7793 20.9519 23.6361 20.9042 23.5406 20.7614C23.2063 20.2852 22.8243 20.0947 22.4901 20.0947C22.0126 20.0947 21.6306 20.5233 21.4873 20.6661C21.3918 20.8566 21.2486 20.9519 21.0576 20.9519C20.7711 20.9519 20.5801 20.7614 20.5801 20.4757C20.5801 20.0947 21.2963 19.428 21.9171 19.2376C22.3946 19.0947 23.3973 18.9995 24.3046 20.19C24.4478 20.3804 24.4001 20.7138 24.2091 20.8566C24.1136 20.9042 24.0181 20.9519 23.9226 20.9519Z" fill="#464045"/>
<path d="M28.4589 23.3325C28.8545 23.3325 29.1752 22.9061 29.1752 22.3801C29.1752 21.8541 28.8545 21.4277 28.4589 21.4277C28.0634 21.4277 27.7427 21.8541 27.7427 22.3801C27.7427 22.9061 28.0634 23.3325 28.4589 23.3325Z" fill="#464045"/>
<path d="M30.1301 20.9519C29.9869 20.9519 29.8436 20.9042 29.7481 20.7614C29.4139 20.2852 29.0319 20.0947 28.6976 20.0947C28.2201 20.0947 27.8381 20.5233 27.6949 20.6661C27.5994 20.8566 27.4561 20.9519 27.2651 20.9519C26.9786 20.9519 26.7876 20.7614 26.7876 20.4757C26.7876 20.0947 27.5039 19.428 28.1246 19.2376C28.6021 19.0947 29.6049 18.9995 30.5121 20.19C30.6554 20.3804 30.6076 20.7138 30.4166 20.8566C30.3211 20.9042 30.2256 20.9519 30.1301 20.9519Z" fill="#464045"/>
<path d="M34.905 17.6182C33.377 18.2372 31.9445 18.7134 30.703 18.9991C25.2595 20.2372 22.2034 18.6658 20.5322 16.9515C19.0997 15.4277 18.6699 13.8563 18.6699 13.8563C19.6249 13.6658 20.5799 13.4277 21.4872 13.2849C25.0207 12.5706 28.2677 12.0944 30.703 12.3801C33.8067 12.6182 35.5735 14.0468 34.905 17.6182Z" fill="#464045"/>
<path d="M34.9051 17.6185C33.3771 18.2375 31.9446 18.7137 30.7031 18.9994C31.2284 16.2852 31.2284 14.0947 30.7509 12.2852C33.8069 12.6185 35.5736 14.0471 34.9051 17.6185Z" fill="#282628"/>
<path d="M24.4004 31.9038L12.4629 24.618C13.5611 22.7133 15.7577 21.9514 17.3334 22.8561L25.2122 27.3799L24.4004 31.9038Z" fill="#FBE7CA"/>
<path d="M39.5374 24.6184L37.5796 25.8089L35.6696 26.9518L27.5998 31.9042L26.7881 27.428L33.7119 23.428L34.0939 23.2375L34.7146 22.8565C35.1444 22.6184 35.6696 22.4756 36.1949 22.4756C37.4364 22.4756 38.7734 23.2851 39.5374 24.6184Z" fill="#FBE7CA"/>
<g opacity="0.6">
<path d="M39.5372 24.6184L37.5794 25.8089C36.4334 23.7613 35.0009 23.2851 34.0459 23.2375L34.6666 22.8565C35.0964 22.6184 35.6217 22.4756 36.1469 22.4756C37.4362 22.4756 38.7732 23.2851 39.5372 24.6184Z" fill="#E2AA61"/>
</g>
<path d="M18.5271 47.5232L11.8898 44.4756C11.6511 44.3803 11.5078 44.1423 11.5078 43.8565V41.9042V41.8565V36.1899V31.9518V30.3327V27.9042V24.9042C11.5078 24.428 12.0331 24.0946 12.4628 24.3327L22.3471 29.6661L23.6364 30.3803L23.8751 30.5232V50.047L20.5326 48.4756L18.5271 47.5232Z" fill="#FF4200"/>
<path d="M27.7427 49.9991L39.8712 44.4276C40.0622 44.3324 40.1577 44.1419 40.1577 43.9514V24.6657C40.1577 24.2848 39.728 23.9991 39.3937 24.1895L27.7427 30.4752V49.9991Z" fill="#FF4200"/>
<g opacity="0.6">
<path d="M40.1577 24.6665V43.9522C40.1577 44.1427 40.0622 44.3332 39.8712 44.4284L27.7427 49.9999V46.2856L37.0062 42.0475C37.1972 41.9522 37.2927 41.7618 37.2927 41.5713V25.3332L39.3937 24.1903C39.728 24.0475 40.1577 24.2856 40.1577 24.6665Z" fill="#C62F00"/>
</g>
<path d="M26.7879 27.1426H24.8779L23.9229 30.4759H27.7429L26.7879 27.1426Z" fill="#CCB079"/>
<path d="M23.9229 30.4756H27.7429V49.9994H23.9229V30.4756Z" fill="#AA0505"/>
<path d="M11.7464 41.9037C13.1968 41.9037 14.3726 40.6246 14.3726 39.0466C14.3726 37.4686 13.1968 36.1895 11.7464 36.1895C10.2959 36.1895 9.12012 37.4686 9.12012 39.0466C9.12012 40.6246 10.2959 41.9037 11.7464 41.9037Z" fill="#FCCAB1"/>
<path d="M39.9187 41.9037C41.3692 41.9037 42.545 40.6246 42.545 39.0466C42.545 37.4686 41.3692 36.1895 39.9187 36.1895C38.4683 36.1895 37.2925 37.4686 37.2925 39.0466C37.2925 40.6246 38.4683 41.9037 39.9187 41.9037Z" fill="#FCCAB1"/>
<g opacity="0.6">
<path d="M42.5451 39.0466C42.5451 40.618 41.3514 41.9037 39.9189 41.9037C39.4891 41.9037 39.0593 41.8085 38.7251 41.5704C39.5846 41.0942 40.1576 40.1418 40.1576 39.0466C40.1576 37.9514 39.5846 36.999 38.7251 36.5228C39.1071 36.3323 39.4891 36.1895 39.9189 36.1895C41.3991 36.1895 42.5451 37.4752 42.5451 39.0466Z" fill="#EA9E7D"/>
</g>
<path d="M40.3967 8.99961C40.3012 8.76151 40.4922 8.4758 40.731 8.42818C41.877 8.09485 42.5455 6.90437 42.2112 5.76151C42.1157 5.52342 42.3067 5.2377 42.5455 5.19008C42.7842 5.09485 43.0707 5.28532 43.1185 5.52342C43.4527 6.66628 44.6465 7.33294 45.7925 6.99961C46.0312 6.90437 46.3177 7.09485 46.3655 7.33294C46.461 7.57104 46.27 7.85675 46.0312 7.90437C44.8852 8.2377 44.2167 9.42818 44.551 10.571C44.6465 10.8091 44.4555 11.0948 44.2167 11.1425C43.978 11.2377 43.6915 11.0472 43.6437 10.8091C43.3095 9.66628 42.1157 8.99961 40.9697 9.33294C40.731 9.42818 40.4444 9.28532 40.3967 8.99961Z" fill="#CB4BCF"/>
<path d="M44.2169 9.38026C44.1692 9.38026 44.0737 9.38026 44.0259 9.33265C43.7872 9.23741 43.6917 8.95169 43.7872 8.7136C43.9304 8.42788 44.1214 8.14217 44.3124 7.90407C43.8827 7.76122 43.4529 7.52312 43.1187 7.23741C43.0232 7.52312 42.9277 7.76122 42.7844 7.99931C42.6412 8.23741 42.3547 8.28503 42.1159 8.14217C41.8772 7.99931 41.8294 7.7136 41.9727 7.4755C42.3069 6.95169 42.3547 6.33265 42.2114 5.76122C42.1159 5.52312 42.3069 5.23741 42.5457 5.18979C42.7844 5.14217 43.0709 5.28503 43.1187 5.52312C43.4529 6.66598 44.6467 7.33265 45.7927 6.99931C46.0314 6.95169 46.3179 7.09455 46.3657 7.33265C46.4612 7.57074 46.2702 7.85646 46.0314 7.90407C45.4107 8.09455 44.9332 8.52312 44.6467 9.09455C44.5512 9.28503 44.4079 9.38026 44.2169 9.38026Z" fill="#7F0A89"/>
<path d="M18.1924 2.33358C18.0969 3.23834 17.2852 3.90501 16.3302 3.80977C15.4229 3.71453 14.7544 2.90501 14.8499 1.95263C14.9454 1.00025 15.8049 0.381199 16.7122 0.476437C17.6194 0.571675 18.2879 1.42882 18.1924 2.33358Z" fill="#0189EF"/>
<path d="M16.5213 4.2855C16.4258 4.2855 16.378 4.2855 16.2825 4.2855C15.0888 4.14264 14.2293 3.09502 14.3725 1.90455C14.5158 0.71407 15.5663 -0.0954536 16.76 -0.000215534C17.8106 0.142642 18.6223 0.999785 18.6701 2.0474C18.6701 2.33312 18.4791 2.52359 18.1926 2.52359C17.9061 2.52359 17.715 2.33312 17.715 2.0474C17.715 1.47598 17.2375 0.952165 16.6645 0.904546C15.996 0.809308 15.423 1.2855 15.3275 1.95217C15.2798 2.66645 15.7573 3.23788 16.4258 3.33312H16.569C16.8555 3.33312 17.0465 3.52359 17.0465 3.80931C17.0465 4.09502 16.8078 4.2855 16.5213 4.2855Z" fill="#143EC4"/>
</g>
<defs>
<clipPath id="clip0_140_627">
<rect width="52" height="50" fill="white"/>
</clipPath>
</defs>
</svg>
