<svg width="50" height="50" viewBox="0 0 50 50" fill="none" xmlns="http://www.w3.org/2000/svg">
<path d="M20.7721 11.6195L22.0268 15.1039C23.4205 18.9711 26.4658 22.0164 30.333 23.4102L33.8174 24.6648C34.1314 24.7789 34.1314 25.2242 33.8174 25.3367L30.333 26.5914C26.4658 27.9852 23.4205 31.0305 22.0268 34.8977L20.7721 38.382C20.658 38.6961 20.2127 38.6961 20.1002 38.382L18.8455 34.8977C17.4518 31.0305 14.4064 27.9852 10.5393 26.5914L7.05488 25.3367C6.74082 25.2227 6.74082 24.7773 7.05488 24.6648L10.5393 23.4102C14.4064 22.0164 17.4518 18.9711 18.8455 15.1039L20.1002 11.6195C20.2127 11.3039 20.658 11.3039 20.7721 11.6195Z" fill="#FEBE40"/>
<path d="M36.4565 3.2457L37.0925 5.00977C37.7987 6.96758 39.3409 8.50977 41.2987 9.21602L43.0628 9.85195C43.2222 9.90977 43.2222 10.1348 43.0628 10.1926L41.2987 10.8285C39.3409 11.5348 37.7987 13.077 37.0925 15.0348L36.4565 16.7988C36.3987 16.9582 36.1737 16.9582 36.1159 16.7988L35.48 15.0348C34.7737 13.077 33.2315 11.5348 31.2737 10.8285L29.5097 10.1926C29.3503 10.1348 29.3503 9.90977 29.5097 9.85195L31.2737 9.21602C33.2315 8.50977 34.7737 6.96758 35.48 5.00977L36.1159 3.2457C36.1737 3.08477 36.4003 3.08477 36.4565 3.2457Z" fill="#FEBE40"/>
<path d="M36.4565 33.2035L37.0925 34.9676C37.7987 36.9254 39.3409 38.4676 41.2987 39.1738L43.0628 39.8098C43.2222 39.8676 43.2222 40.0926 43.0628 40.1504L41.2987 40.7863C39.3409 41.4926 37.7987 43.0348 37.0925 44.9926L36.4565 46.7566C36.3987 46.916 36.1737 46.916 36.1159 46.7566L35.48 44.9926C34.7737 43.0348 33.2315 41.4926 31.2737 40.7863L29.5097 40.1504C29.3503 40.0926 29.3503 39.8676 29.5097 39.8098L31.2737 39.1738C33.2315 38.4676 34.7737 36.9254 35.48 34.9676L36.1159 33.2035C36.1737 33.0441 36.4003 33.0441 36.4565 33.2035Z" fill="#FEBE40"/>
</svg>
