<svg width="50" height="50" viewBox="0 0 50 50" fill="none" xmlns="http://www.w3.org/2000/svg">
<path d="M25.1455 35L41 24.6804L19.1037 21L3 30.7442L25.1455 35Z" fill="#F4D177"/>
<path d="M24.4777 25L9 14.6811L30.3772 11L46 20.6146L24.4777 25Z" fill="#FF6666"/>
<path d="M19.5273 16L7 7.89316L24.3019 5L37 12.4472L19.5273 16Z" fill="#02A9F4"/>
<path d="M26.2961 35.9105C26.0842 35.5702 25.7944 35.3328 25.4745 35.2717L4 31.3628C4 31.3628 4.92013 34.0651 4.88732 35.8633C4.86265 37.32 4.01229 40.0763 4.01229 40.0763L25.4854 43.9853C25.8053 44.0463 26.0951 43.9143 26.3058 43.6534C26.5162 43.3923 26.6475 43.0035 26.6462 42.5508L26.6394 37.1381C26.6393 36.6854 26.508 36.2479 26.2961 35.9105ZM46 20.8733L24.5269 24.3851C24.2056 24.4408 23.9158 24.6532 23.7039 24.96C23.492 25.2655 23.3608 25.6557 23.3608 26.0626L23.3553 30.9282C23.3539 31.3364 23.4839 31.685 23.6944 31.9169C23.9049 32.1529 24.1948 32.271 24.5147 32.2168L45.9892 28.7036C45.9892 28.7036 45.3726 27.1512 45.1975 24.6892C45.0827 23.0771 46 20.8733 46 20.8733ZM19.1307 22.2897L36.71 19.4111C36.71 19.4111 35.9375 18.0919 35.8637 16.259C35.805 14.808 36.7196 13 36.7196 13L19.1389 15.8771C18.8777 15.9216 18.6398 16.0966 18.4662 16.3465C18.2925 16.5951 18.1859 16.9145 18.1859 17.249L18.1804 21.2316C18.179 21.5634 18.2857 21.8508 18.458 22.0425C18.6303 22.2342 18.8681 22.3299 19.1307 22.2897Z" fill="#FFF3E4"/>
<path d="M30.8971 31.6679L25.8207 35.1885C25.7135 35.1452 25.603 35.1121 25.4897 35.0912L3.83036 31.2711C3.45393 31.2032 3.08023 31.455 3.01124 31.8323C2.94233 32.2102 3.19744 32.571 3.58217 32.6389L25.2346 36.4577C25.3242 36.4746 25.4649 36.5648 25.5986 36.7732C25.749 37.0039 25.8344 37.3044 25.8344 37.5995L25.8414 42.8904C25.8427 43.1489 25.7738 43.3865 25.6579 43.5256C25.5751 43.6227 25.5283 43.6097 25.5007 43.6062L3.84276 39.7863C3.46769 39.7178 3.09263 39.9702 3.02363 40.3475C2.95464 40.7254 3.20984 41.0863 3.59457 41.1542L25.2456 44.9727C25.3436 44.9912 25.4401 45 25.5352 45C25.9153 45 26.2747 44.8587 26.5693 44.594L41.2982 34.239C41.7202 33.9445 42.0014 33.3461 42 32.6092L41.9967 30L30.8971 31.6679Z" fill="#FBAC0F"/>
<path d="M46.1717 28.1794L24.5079 31.6089C24.4569 31.619 24.3949 31.6176 24.3148 31.5302C24.2183 31.4259 24.1591 31.2422 24.1604 31.0362L24.1658 26.2866C24.1658 26.0495 24.2445 25.8028 24.3838 25.6091C24.494 25.4553 24.6292 25.3543 24.7478 25.3346L46.4062 21.9071C46.7924 21.8461 47.0529 21.4904 46.9909 21.1116C46.9288 20.7334 46.5592 20.4712 46.1829 20.5369C46.1829 20.5369 28.8631 23.3055 24.1146 24.0836L21.2213 22.2831L18.4869 22.7102L17.4085 19.9103L9.51833 15C8.83846 15.1965 8.03728 16.0937 8.00693 17.1047L8 21.8901C8 22.5502 8.27992 23.0868 8.70184 23.3511L23.551 32.7094C23.5453 32.7057 23.5411 32.7021 23.5356 32.6985C23.8101 32.8956 24.1323 33 24.4678 33C24.556 33 24.6457 32.9931 24.7353 32.9783L46.3951 29.5493C46.7812 29.4884 47.0418 29.1326 46.9798 28.7538C46.9192 28.3752 46.5454 28.1183 46.1717 28.1794Z" fill="#E63431"/>
<path d="M37.1497 18.7647L18.8707 21.5767C18.8224 21.5261 18.7728 21.4146 18.7728 21.2504L18.7784 17.3261C18.7784 17.1537 18.8352 16.978 18.9359 16.8404C19.021 16.7241 19.1103 16.6735 19.1557 16.6659L37.3894 13.8313C37.7865 13.7697 38.0544 13.4099 37.9906 13.0282C37.9267 12.6459 37.5454 12.3852 37.1597 12.4481C37.1597 12.4481 18.6146 15.358 18.4713 15.4261L6.31448 8C5.74305 8.16141 5.06813 8.903 5.04255 9.73746L5 13.8697C5 14.4183 5.23543 14.8615 5.59131 15.0804C5.59131 15.0804 17.9542 22.7665 18.4737 22.9369C18.7594 23.0306 19.0678 22.9954 19.1471 22.9838L37.3794 20.1478C37.7766 20.0862 38.0444 19.7264 37.9807 19.3447C37.9168 18.9623 37.5367 18.7018 37.1497 18.7647Z" fill="#006AB3"/>
</svg>
