<svg width="14" height="17" viewBox="0 0 14 17" fill="none" xmlns="http://www.w3.org/2000/svg">
<path d="M11.6667 0H3.33333C2.44928 0 1.60143 0.35119 0.976311 0.976311C0.351189 1.60143 0 2.44928 0 3.33333V13.3333C0 14.2174 0.351189 15.0652 0.976311 15.6904C1.60143 16.3155 2.44928 16.6667 3.33333 16.6667H11.6667C12.1087 16.6667 12.5326 16.4911 12.8452 16.1785C13.1577 15.8659 13.3333 15.442 13.3333 15V1.66667C13.3333 1.22464 13.1577 0.800716 12.8452 0.488155C12.5326 0.175595 12.1087 0 11.6667 0ZM1.66667 3.33333C1.66667 2.89131 1.84226 2.46738 2.15482 2.15482C2.46738 1.84226 2.89131 1.66667 3.33333 1.66667H11.6667V10H3.33333C2.74587 10.0025 2.16999 10.1637 1.66667 10.4667V3.33333ZM3.33333 15C2.89131 15 2.46738 14.8244 2.15482 14.5118C1.84226 14.1993 1.66667 13.7754 1.66667 13.3333C1.66667 12.8913 1.84226 12.4674 2.15482 12.1548C2.46738 11.8423 2.89131 11.6667 3.33333 11.6667H11.6667V15H3.33333ZM5 5H8.33333C8.55435 5 8.76631 4.9122 8.92259 4.75592C9.07887 4.59964 9.16667 4.38768 9.16667 4.16667C9.16667 3.94565 9.07887 3.73369 8.92259 3.57741C8.76631 3.42113 8.55435 3.33333 8.33333 3.33333H5C4.77899 3.33333 4.56702 3.42113 4.41074 3.57741C4.25446 3.73369 4.16667 3.94565 4.16667 4.16667C4.16667 4.38768 4.25446 4.59964 4.41074 4.75592C4.56702 4.9122 4.77899 5 5 5Z" fill="#045CCE"/>
</svg>
