<svg width="20" height="20" viewBox="0 0 20 20" fill="none" xmlns="http://www.w3.org/2000/svg">
<path d="M12.2665 7.32484L8.69151 10.9082L7.31651 9.53317C7.2418 9.44594 7.14987 9.37509 7.04648 9.32507C6.94309 9.27505 6.83048 9.24694 6.71572 9.24251C6.60095 9.23807 6.48651 9.25741 6.37957 9.29931C6.27263 9.3412 6.17551 9.40475 6.0943 9.48596C6.01309 9.56717 5.94954 9.6643 5.90764 9.77124C5.86575 9.87817 5.84641 9.99262 5.85084 10.1074C5.85528 10.2221 5.88338 10.3348 5.9334 10.4381C5.98342 10.5415 6.05427 10.6335 6.14151 10.7082L8.09984 12.6748C8.17771 12.7521 8.27005 12.8132 8.37159 12.8546C8.47312 12.8961 8.58184 12.9171 8.69151 12.9165C8.91012 12.9156 9.11962 12.8288 9.27484 12.6748L13.4415 8.50817C13.5196 8.4307 13.5816 8.33853 13.6239 8.23698C13.6662 8.13544 13.688 8.02651 13.688 7.9165C13.688 7.80649 13.6662 7.69757 13.6239 7.59602C13.5816 7.49447 13.5196 7.40231 13.4415 7.32484C13.2854 7.16963 13.0742 7.08251 12.854 7.08251C12.6339 7.08251 12.4226 7.16963 12.2665 7.32484ZM9.99984 1.6665C8.35166 1.6665 6.7405 2.15525 5.37009 3.07092C3.99968 3.9866 2.93158 5.28809 2.30084 6.81081C1.67011 8.33353 1.50509 10.0091 1.82663 11.6256C2.14817 13.2421 2.94185 14.727 4.10728 15.8924C5.27272 17.0578 6.75758 17.8515 8.37409 18.173C9.9906 18.4946 11.6662 18.3296 13.1889 17.6988C14.7116 17.0681 16.0131 16 16.9288 14.6296C17.8444 13.2592 18.3332 11.648 18.3332 9.99984C18.3332 8.90549 18.1176 7.82186 17.6988 6.81081C17.28 5.79976 16.6662 4.8811 15.8924 4.10728C15.1186 3.33346 14.1999 2.71963 13.1889 2.30084C12.1778 1.88205 11.0942 1.6665 9.99984 1.6665ZM9.99984 16.6665C8.6813 16.6665 7.39237 16.2755 6.29604 15.543C5.19971 14.8104 4.34523 13.7692 3.84064 12.5511C3.33606 11.3329 3.20404 9.99244 3.46127 8.69924C3.71851 7.40603 4.35345 6.21814 5.2858 5.28579C6.21815 4.35344 7.40603 3.7185 8.69924 3.46127C9.99245 3.20403 11.3329 3.33606 12.5511 3.84064C13.7692 4.34522 14.8104 5.19971 15.543 6.29604C16.2755 7.39236 16.6665 8.6813 16.6665 9.99984C16.6665 11.7679 15.9641 13.4636 14.7139 14.7139C13.4636 15.9641 11.768 16.6665 9.99984 16.6665Z" fill="#045CCE"/>
</svg>
