<svg width="20" height="20" viewBox="0 0 20 20" fill="none" xmlns="http://www.w3.org/2000/svg">
<path d="M14.1664 9.16715H7.84142L10.5914 6.42548C10.7483 6.26856 10.8365 6.05573 10.8365 5.83381C10.8365 5.6119 10.7483 5.39907 10.5914 5.24215C10.4345 5.08523 10.2217 4.99707 9.99975 4.99707C9.77783 4.99707 9.565 5.08523 9.40808 5.24215L5.24142 9.40881C5.16555 9.48807 5.10608 9.58152 5.06642 9.68381C4.98307 9.8867 4.98307 10.1143 5.06642 10.3171C5.10608 10.4194 5.16555 10.5129 5.24142 10.5921L9.40808 14.7588C9.48555 14.8369 9.57772 14.8989 9.67927 14.9412C9.78082 14.9835 9.88974 15.0053 9.99975 15.0053C10.1098 15.0053 10.2187 14.9835 10.3202 14.9412C10.4218 14.8989 10.5139 14.8369 10.5914 14.7588C10.6695 14.6813 10.7315 14.5892 10.7738 14.4876C10.8161 14.3861 10.8379 14.2772 10.8379 14.1671C10.8379 14.0571 10.8161 13.9482 10.7738 13.8467C10.7315 13.7451 10.6695 13.653 10.5914 13.5755L7.84142 10.8338H14.1664C14.3874 10.8338 14.5994 10.746 14.7557 10.5897C14.912 10.4335 14.9998 10.2215 14.9998 10.0005C14.9998 9.77947 14.912 9.56751 14.7557 9.41122C14.5994 9.25494 14.3874 9.16715 14.1664 9.16715Z" fill="#6D6D6D"/>
</svg>
