<svg width="20" height="21" viewBox="0 0 20 21" fill="none" xmlns="http://www.w3.org/2000/svg">
<path d="M16.1998 11.3333C16.0165 11.3333 15.8248 11.275 15.6415 11.2333C15.2702 11.1515 14.9054 11.0429 14.5498 10.9083C14.1632 10.7677 13.7383 10.775 13.3568 10.9288C12.9752 11.0827 12.6641 11.3722 12.4832 11.7417L12.2998 12.1167C11.4882 11.6652 10.7423 11.1044 10.0832 10.45C9.42881 9.79085 8.86803 9.045 8.41651 8.23334L8.76651 8C9.13598 7.8191 9.42549 7.50794 9.57933 7.12641C9.73318 6.74488 9.74048 6.31993 9.59984 5.93334C9.46753 5.57702 9.35895 5.21233 9.27484 4.84167C9.23317 4.65834 9.19984 4.46667 9.17484 4.275C9.07364 3.68802 8.76619 3.15645 8.30786 2.77603C7.84952 2.39562 7.27042 2.19134 6.67484 2.2H4.17484C3.8157 2.19663 3.46005 2.27068 3.1321 2.41711C2.80415 2.56354 2.5116 2.77892 2.27437 3.04857C2.03713 3.31823 1.86079 3.63583 1.75733 3.97976C1.65387 4.3237 1.62574 4.68588 1.67484 5.04167C2.11879 8.53282 3.7132 11.7766 6.20622 14.2605C8.69924 16.7445 11.9488 18.3271 15.4415 18.7583H15.7582C16.3727 18.7592 16.966 18.5338 17.4248 18.125C17.6885 17.8892 17.8991 17.6002 18.0427 17.2769C18.1864 16.9537 18.2598 16.6037 18.2582 16.25V13.75C18.248 13.1712 18.0372 12.6138 17.6618 12.1731C17.2864 11.7323 16.7697 11.4355 16.1998 11.3333ZM16.6165 16.3333C16.6164 16.4517 16.591 16.5686 16.5422 16.6764C16.4933 16.7841 16.4221 16.8802 16.3332 16.9583C16.2403 17.0392 16.1315 17.0995 16.0137 17.1354C15.896 17.1713 15.772 17.182 15.6498 17.1667C12.5289 16.7665 9.63004 15.3387 7.41044 13.1086C5.19084 10.8784 3.77685 7.97278 3.39151 4.85C3.37824 4.72793 3.38987 4.60444 3.42567 4.48699C3.46148 4.36955 3.52073 4.26058 3.59984 4.16667C3.67793 4.07778 3.77406 4.00654 3.88182 3.95768C3.98959 3.90883 4.10652 3.88349 4.22484 3.88334H6.72484C6.91863 3.87902 7.10786 3.9424 7.25996 4.06256C7.41206 4.18272 7.51751 4.35214 7.55817 4.54167C7.59151 4.76945 7.63317 4.99445 7.68317 5.21667C7.77944 5.65596 7.90756 6.08765 8.06651 6.50834L6.89984 7.05C6.80009 7.09577 6.71036 7.16079 6.6358 7.24133C6.56125 7.32187 6.50334 7.41635 6.4654 7.51933C6.42746 7.62231 6.41023 7.73178 6.41471 7.84144C6.41919 7.9511 6.44529 8.05879 6.49151 8.15834C7.69084 10.7273 9.75588 12.7923 12.3248 13.9917C12.5277 14.075 12.7553 14.075 12.9582 13.9917C13.0621 13.9545 13.1576 13.897 13.2391 13.8227C13.3207 13.7483 13.3866 13.6584 13.4332 13.5583L13.9498 12.3917C14.3806 12.5457 14.8203 12.6737 15.2665 12.775C15.4887 12.825 15.7137 12.8667 15.9415 12.9C16.131 12.9407 16.3005 13.0461 16.4206 13.1982C16.5408 13.3503 16.6042 13.5395 16.5998 13.7333L16.6165 16.3333Z" fill="#888888"/>
</svg>
