<svg width="17" height="17" viewBox="0 0 17 17" fill="none" xmlns="http://www.w3.org/2000/svg">
<path d="M6.075 9.40833L1.66667 13.825V12.5C1.66667 12.279 1.57887 12.067 1.42259 11.9107C1.26631 11.7545 1.05435 11.6667 0.833333 11.6667C0.61232 11.6667 0.400358 11.7545 0.244078 11.9107C0.0877973 12.067 0 12.279 0 12.5V15.8333C0.00131666 15.9422 0.0239658 16.0498 0.0666666 16.15C0.151229 16.3536 0.313042 16.5154 0.516667 16.6C0.616852 16.6427 0.724436 16.6653 0.833333 16.6667H4.16667C4.38768 16.6667 4.59964 16.5789 4.75592 16.4226C4.9122 16.2663 5 16.0543 5 15.8333C5 15.6123 4.9122 15.4004 4.75592 15.2441C4.59964 15.0878 4.38768 15 4.16667 15H2.84167L7.25833 10.5917C7.41525 10.4347 7.50341 10.2219 7.50341 10C7.50341 9.77808 7.41525 9.56525 7.25833 9.40833C7.10141 9.25141 6.88858 9.16326 6.66667 9.16326C6.44475 9.16326 6.23192 9.25141 6.075 9.40833ZM2.84167 1.66667H4.16667C4.38768 1.66667 4.59964 1.57887 4.75592 1.42259C4.9122 1.26631 5 1.05435 5 0.833333C5 0.61232 4.9122 0.400358 4.75592 0.244078C4.59964 0.0877973 4.38768 0 4.16667 0H0.833333C0.724436 0.00131666 0.616852 0.0239658 0.516667 0.0666666C0.313042 0.151229 0.151229 0.313042 0.0666666 0.516667C0.0239658 0.616852 0.00131666 0.724436 0 0.833333V4.16667C0 4.38768 0.0877973 4.59964 0.244078 4.75592C0.400358 4.9122 0.61232 5 0.833333 5C1.05435 5 1.26631 4.9122 1.42259 4.75592C1.57887 4.59964 1.66667 4.38768 1.66667 4.16667V2.84167L6.075 7.25833C6.15247 7.33644 6.24464 7.39844 6.34619 7.44074C6.44774 7.48305 6.55666 7.50483 6.66667 7.50483C6.77668 7.50483 6.8856 7.48305 6.98715 7.44074C7.0887 7.39844 7.18086 7.33644 7.25833 7.25833C7.33644 7.18086 7.39844 7.0887 7.44074 6.98715C7.48305 6.8856 7.50483 6.77668 7.50483 6.66667C7.50483 6.55666 7.48305 6.44774 7.44074 6.34619C7.39844 6.24464 7.33644 6.15247 7.25833 6.075L2.84167 1.66667ZM15.8333 11.6667C15.6123 11.6667 15.4004 11.7545 15.2441 11.9107C15.0878 12.067 15 12.279 15 12.5V13.825L10.5917 9.40833C10.4347 9.25141 10.2219 9.16326 10 9.16326C9.77808 9.16326 9.56525 9.25141 9.40833 9.40833C9.25141 9.56525 9.16326 9.77808 9.16326 10C9.16326 10.2219 9.25141 10.4347 9.40833 10.5917L13.825 15H12.5C12.279 15 12.067 15.0878 11.9107 15.2441C11.7545 15.4004 11.6667 15.6123 11.6667 15.8333C11.6667 16.0543 11.7545 16.2663 11.9107 16.4226C12.067 16.5789 12.279 16.6667 12.5 16.6667H15.8333C15.9422 16.6653 16.0498 16.6427 16.15 16.6C16.3536 16.5154 16.5154 16.3536 16.6 16.15C16.6427 16.0498 16.6653 15.9422 16.6667 15.8333V12.5C16.6667 12.279 16.5789 12.067 16.4226 11.9107C16.2663 11.7545 16.0543 11.6667 15.8333 11.6667ZM16.6 0.516667C16.5154 0.313042 16.3536 0.151229 16.15 0.0666666C16.0498 0.0239658 15.9422 0.00131666 15.8333 0H12.5C12.279 0 12.067 0.0877973 11.9107 0.244078C11.7545 0.400358 11.6667 0.61232 11.6667 0.833333C11.6667 1.05435 11.7545 1.26631 11.9107 1.42259C12.067 1.57887 12.279 1.66667 12.5 1.66667H13.825L9.40833 6.075C9.33023 6.15247 9.26823 6.24464 9.22592 6.34619C9.18362 6.44774 9.16183 6.55666 9.16183 6.66667C9.16183 6.77668 9.18362 6.8856 9.22592 6.98715C9.26823 7.0887 9.33023 7.18086 9.40833 7.25833C9.4858 7.33644 9.57797 7.39844 9.67952 7.44074C9.78107 7.48305 9.88999 7.50483 10 7.50483C10.11 7.50483 10.2189 7.48305 10.3205 7.44074C10.422 7.39844 10.5142 7.33644 10.5917 7.25833L15 2.84167V4.16667C15 4.38768 15.0878 4.59964 15.2441 4.75592C15.4004 4.9122 15.6123 5 15.8333 5C16.0543 5 16.2663 4.9122 16.4226 4.75592C16.5789 4.59964 16.6667 4.38768 16.6667 4.16667V0.833333C16.6653 0.724436 16.6427 0.616852 16.6 0.516667Z" fill="#4F4F4F"/>
</svg>
